<svg width="21" height="20" viewBox="0 0 21 20" fill="none" xmlns="http://www.w3.org/2000/svg">
<path fill-rule="evenodd" clip-rule="evenodd" d="M9.25295 16.9434C9.90383 17.5942 10.9591 17.5942 11.61 16.9434L16.0207 12.5326C16.3462 12.2072 16.3462 11.6795 16.0207 11.3541C15.6953 11.0287 15.1677 11.0287 14.8422 11.3541L11.2648 14.9315L11.2648 3.4017C11.2648 2.94146 10.8917 2.56836 10.4315 2.56836C9.97124 2.56836 9.59814 2.94146 9.59814 3.4017L9.59814 14.9315L6.02073 11.3541C5.6953 11.0287 5.16766 11.0287 4.84222 11.3541C4.51679 11.6795 4.51678 12.2072 4.84222 12.5326L9.25295 16.9434L9.77776 16.4186L9.25295 16.9434Z" fill="white"/>
</svg>
