<svg width="8" height="47" viewBox="0 0 8 47" fill="none" xmlns="http://www.w3.org/2000/svg">
<path d="M3.64645 46.3536C3.84171 46.5488 4.15829 46.5488 4.35356 46.3536L7.53554 43.1716C7.7308 42.9763 7.7308 42.6597 7.53554 42.4645C7.34027 42.2692 7.02369 42.2692 6.82843 42.4645L4 45.2929L1.17157 42.4645C0.976313 42.2692 0.65973 42.2692 0.464468 42.4645C0.269206 42.6597 0.269206 42.9763 0.464468 43.1716L3.64645 46.3536ZM4 0L3.5 2.18557e-08L3.5 3.83333L4 3.83333L4.5 3.83333L4.5 -2.18557e-08L4 0ZM4 11.5L3.5 11.5L3.5 19.1667L4 19.1667L4.5 19.1667L4.5 11.5L4 11.5ZM4 26.8333L3.5 26.8333L3.5 34.5L4 34.5L4.5 34.5L4.5 26.8333L4 26.8333ZM4 42.1667L3.5 42.1667L3.5 46L4 46L4.5 46L4.5 42.1667L4 42.1667Z" fill="#696969"/>
</svg>
