<svg width="20" height="20" viewBox="0 0 20 20" fill="none" xmlns="http://www.w3.org/2000/svg">
<path fill-rule="evenodd" clip-rule="evenodd" d="M16.9435 11.2469C17.5944 10.5961 17.5944 9.54078 16.9435 8.8899L12.5327 4.47914C12.2073 4.15371 11.6797 4.15371 11.3542 4.47914C11.0288 4.80458 11.0288 5.33222 11.3542 5.65765L14.9316 9.23507H3.40182C2.94158 9.23507 2.56849 9.60816 2.56849 10.0684C2.56849 10.5286 2.94158 10.9017 3.40182 10.9017H14.9317L11.3542 14.4791C11.0288 14.8046 11.0288 15.3322 11.3542 15.6577C11.6797 15.9831 12.2073 15.9831 12.5327 15.6577L16.9435 11.2469L16.4187 10.7221L16.9435 11.2469Z" fill="black"/>
</svg>
