<svg width="18" height="18" viewBox="0 0 18 18" fill="none" xmlns="http://www.w3.org/2000/svg">
<path fill-rule="evenodd" clip-rule="evenodd" d="M15.2491 10.1222C15.8349 9.53641 15.8349 8.58666 15.2491 8.00088L11.2794 4.03119C10.9865 3.7383 10.5116 3.7383 10.2187 4.03119C9.92585 4.32409 9.92585 4.79896 10.2187 5.09185L13.4384 8.31152H3.06157C2.64736 8.31152 2.31157 8.64731 2.31157 9.06152C2.31157 9.47574 2.64736 9.81152 3.06157 9.81152H13.4384L10.2187 13.0312C9.92585 13.3241 9.92585 13.799 10.2187 14.0919C10.5116 14.3847 10.9865 14.3847 11.2794 14.0919L15.2491 10.1222L14.7768 9.64987L15.2491 10.1222Z" fill="white"/>
</svg>
