<svg width="25" height="24" viewBox="0 0 25 24" fill="none" xmlns="http://www.w3.org/2000/svg">
<path d="M10.2689 6.95992L9.84803 5.06614C9.64468 4.15106 8.83305 3.5 7.89566 3.5H5.97201C4.8792 3.5 3.97634 4.37999 4.08817 5.46706C4.32953 7.81329 5.06346 10.1012 6.25058 12.1473C7.71688 14.6747 9.82535 16.7831 12.3527 18.2494C14.4098 19.4429 16.668 20.1434 19.0037 20.3942C20.102 20.5121 21 19.6046 21 18.5V16.6043C21 15.6669 20.3489 14.8553 19.4339 14.652L17.5401 14.2311C16.8923 14.0872 16.216 14.2843 15.747 14.7538C15.1566 15.3448 14.246 15.5031 13.5419 15.0534C11.8972 14.0028 10.4972 12.6028 9.44661 10.9581C8.99689 10.254 9.15517 9.34339 9.74621 8.75299C10.2157 8.28404 10.4128 7.60766 10.2689 6.95992Z" stroke="#97A1A4" stroke-width="1.5" stroke-linejoin="round"/>
</svg>
