<svg width="146" height="10" viewBox="0 0 146 10" fill="none" xmlns="http://www.w3.org/2000/svg">
<path d="M1 1C4.13319 2.60017 12.0611 2.9522 15.8866 4.72572C19.6583 6.47429 22.3468 8.28609 25.6462 8.91016C26.5468 9.08052 27.6163 9.00084 28.5459 8.73681C32.3346 7.66081 34.7371 5.09643 38.9582 4.29101C45.8225 2.98127 49.2479 5.4378 53.0734 6.33122C56.5862 7.15162 60.3248 7.75271 66.7771 7.84605C70.7955 7.90418 74.8198 4.57371 79.4444 2.51749C85.1491 -0.0189401 92.7644 1.35204 96.5899 2.50682C101.265 3.91803 107.006 6.15254 110.305 7.30733C114.377 8.73235 120.441 9.35287 125.335 8.65147C131.486 7.76976 133.907 4.56304 137.733 4.11233C138.662 4.02432 139.446 3.8483 140.633 3.75762C141.819 3.66695 143.386 3.66695 145 3.66695" stroke="#35C0FF" stroke-width="2" stroke-linecap="round"/>
</svg>
