<svg width="25" height="24" viewBox="0 0 25 24" fill="none" xmlns="http://www.w3.org/2000/svg">
<path d="M4.34202 19.032L4.68251 18.3638H4.68251L4.34202 19.032ZM3.46799 18.158L4.13624 17.8175L4.13624 17.8175L3.46799 18.158ZM21.532 18.158L20.8638 17.8175V17.8175L21.532 18.158ZM20.658 19.032L20.9985 19.7003L20.658 19.032ZM21.532 5.84202L20.8638 6.18251V6.18251L21.532 5.84202ZM20.658 4.96799L20.9985 4.29973L20.9985 4.29973L20.658 4.96799ZM3.46799 5.84202L2.79973 5.50153L2.79973 5.50153L3.46799 5.84202ZM4.34202 4.96799L4.00153 4.29973L4.00153 4.29973L4.34202 4.96799ZM11.2335 11.9638L10.7586 12.5443L11.2335 11.9638ZM13.7665 11.9638L14.2414 12.5443L13.7665 11.9638ZM21.75 7.95H21V16.05H21.75H22.5V7.95H21.75ZM18.55 19.25V18.5H6.45V19.25V20H18.55V19.25ZM3.25 16.05H4V7.95H3.25H2.5V16.05H3.25ZM6.45 4.75V5.5H18.55V4.75V4H6.45V4.75ZM6.45 19.25V18.5C5.87757 18.5 5.49336 18.4994 5.19748 18.4752C4.91035 18.4518 4.77307 18.4099 4.68251 18.3638L4.34202 19.032L4.00153 19.7003C4.33879 19.8721 4.69545 19.9392 5.07533 19.9703C5.44646 20.0006 5.90232 20 6.45 20V19.25ZM3.25 16.05H2.5C2.5 16.5977 2.49942 17.0535 2.52974 17.4247C2.56078 17.8046 2.62789 18.1612 2.79973 18.4985L3.46799 18.158L4.13624 17.8175C4.0901 17.7269 4.04822 17.5896 4.02476 17.3025C4.00058 17.0066 4 16.6224 4 16.05H3.25ZM4.34202 19.032L4.68251 18.3638C4.44731 18.2439 4.25608 18.0527 4.13624 17.8175L3.46799 18.158L2.79973 18.4985C3.06338 19.0159 3.48408 19.4366 4.00153 19.7003L4.34202 19.032ZM21.75 16.05H21C21 16.6224 20.9994 17.0066 20.9752 17.3025C20.9518 17.5896 20.9099 17.7269 20.8638 17.8175L21.532 18.158L22.2003 18.4985C22.3721 18.1612 22.4392 17.8046 22.4703 17.4247C22.5006 17.0535 22.5 16.5977 22.5 16.05H21.75ZM18.55 19.25V20C19.0977 20 19.5535 20.0006 19.9247 19.9703C20.3046 19.9392 20.6612 19.8721 20.9985 19.7003L20.658 19.032L20.3175 18.3638C20.2269 18.4099 20.0896 18.4518 19.8025 18.4752C19.5066 18.4994 19.1224 18.5 18.55 18.5V19.25ZM21.532 18.158L20.8638 17.8175C20.7439 18.0527 20.5527 18.2439 20.3175 18.3638L20.658 19.032L20.9985 19.7003C21.5159 19.4366 21.9366 19.0159 22.2003 18.4985L21.532 18.158ZM21.75 7.95H22.5C22.5 7.40232 22.5006 6.94646 22.4703 6.57533C22.4392 6.19545 22.3721 5.83879 22.2003 5.50153L21.532 5.84202L20.8638 6.18251C20.9099 6.27307 20.9518 6.41035 20.9752 6.69748C20.9994 6.99336 21 7.37757 21 7.95H21.75ZM18.55 4.75V5.5C19.1224 5.5 19.5066 5.50058 19.8025 5.52476C20.0896 5.54822 20.2269 5.5901 20.3175 5.63624L20.658 4.96799L20.9985 4.29973C20.6612 4.12789 20.3046 4.06078 19.9247 4.02974C19.5535 3.99942 19.0977 4 18.55 4V4.75ZM21.532 5.84202L22.2003 5.50153C21.9366 4.98408 21.5159 4.56338 20.9985 4.29973L20.658 4.96799L20.3175 5.63624C20.5527 5.75608 20.7439 5.94731 20.8638 6.18251L21.532 5.84202ZM3.25 7.95H4C4 7.37757 4.00058 6.99336 4.02476 6.69748C4.04822 6.41035 4.0901 6.27307 4.13624 6.18251L3.46799 5.84202L2.79973 5.50153C2.62789 5.83879 2.56078 6.19545 2.52974 6.57533C2.49942 6.94646 2.5 7.40232 2.5 7.95H3.25ZM6.45 4.75V4C5.90232 4 5.44646 3.99942 5.07533 4.02974C4.69545 4.06078 4.33879 4.12789 4.00153 4.29973L4.34202 4.96799L4.68251 5.63624C4.77307 5.5901 4.91035 5.54822 5.19748 5.52476C5.49336 5.50058 5.87757 5.5 6.45 5.5V4.75ZM3.46799 5.84202L4.13624 6.18251C4.25608 5.94731 4.44731 5.75608 4.68251 5.63624L4.34202 4.96799L4.00153 4.29973C3.48408 4.56338 3.06338 4.98408 2.79973 5.50153L3.46799 5.84202ZM11.2335 11.9638L11.7085 11.3833L3.97493 5.0559L3.5 5.63637L3.02507 6.21684L10.7586 12.5443L11.2335 11.9638ZM21.5 5.63637L21.0251 5.0559L13.2915 11.3833L13.7665 11.9638L14.2414 12.5443L21.9749 6.21684L21.5 5.63637ZM11.2335 11.9638L10.7586 12.5443C11.7716 13.3731 13.2284 13.3731 14.2414 12.5443L13.7665 11.9638L13.2915 11.3833C12.8311 11.7601 12.1689 11.7601 11.7085 11.3833L11.2335 11.9638Z" fill="#97A1A4"/>
</svg>
