<svg width="25" height="24" viewBox="0 0 25 24" fill="none" xmlns="http://www.w3.org/2000/svg">
<path fill-rule="evenodd" clip-rule="evenodd" d="M3.5 4C4.05228 4 4.5 4.44772 4.5 5V19C4.5 19.5523 4.05228 20 3.5 20C2.94772 20 2.5 19.5523 2.5 19V5C2.5 4.44772 2.94772 4 3.5 4ZM8.5 6C8.5 5.44772 8.94772 5 9.5 5H21.5C22.0523 5 22.5 5.44772 22.5 6C22.5 6.55228 22.0523 7 21.5 7H9.5C8.94772 7 8.5 6.55228 8.5 6ZM8.5 12C8.5 11.4477 8.94772 11 9.5 11H21.5C22.0523 11 22.5 11.4477 22.5 12C22.5 12.5523 22.0523 13 21.5 13H9.5C8.94772 13 8.5 12.5523 8.5 12ZM8.5 18C8.5 17.4477 8.94772 17 9.5 17H16.5C17.0523 17 17.5 17.4477 17.5 18C17.5 18.5523 17.0523 19 16.5 19H9.5C8.94772 19 8.5 18.5523 8.5 18Z" fill="#97A1A4"/>
</svg>
