<svg width="105" height="22" viewBox="0 0 105 22" fill="none" xmlns="http://www.w3.org/2000/svg">
<path fill-rule="evenodd" clip-rule="evenodd" d="M0.606087 2.89439C0.20203 3.60492 0 4.42848 0 5.36508V19.7069H3.03043V12.4112H13.6635V12.4125V16.5866C13.6635 17.1679 13.5019 17.6282 13.1787 17.9673C12.8554 18.3064 12.3786 18.476 11.7483 18.476H10.2078V21.4069H11.7968C12.7665 21.4069 13.6231 21.205 14.3666 20.8013C15.11 20.3976 15.6838 19.8324 16.0879 19.1057C16.4919 18.3952 16.694 17.5717 16.694 16.6351V2.71822H13.6635V9.52878H3.03043V5.41352C3.03043 4.83218 3.19205 4.37196 3.5153 4.03284C3.83854 3.69373 4.31534 3.52417 4.94566 3.52417H6.48618V0.593262H4.89718C3.92744 0.593262 3.07084 0.795115 2.32737 1.19882C1.58391 1.60253 1.01014 2.16772 0.606087 2.89439ZM70.2174 1.44322H70.2242V19.7163H67.218V9.44573H62.1598V19.7058H62.1417V19.716H59.1113V19.7058H59.095V9.446H57.0572V9.42841H57.0188V6.53167H59.095C59.095 6.25564 59.1066 5.99681 59.129 5.75351C59.1528 5.44471 59.2004 5.14926 59.272 4.86719C59.4709 4.03937 59.8263 3.42855 60.2814 2.9255C61.1217 1.95978 62.5058 1.40675 63.6181 1.40675C63.8345 1.40675 65.15 1.40675 65.5856 1.45233H65.5975V1.45361L65.6036 1.4543L65.6095 1.45498L65.616 1.45577L65.6201 1.45628V4.42811H63.8653C62.6047 4.42811 62.1845 5.29357 62.1598 6.53167H67.218V1.44322H67.2267V1.40675H70.2174V1.44322ZM85.4494 13.1362C85.4494 9.29402 82.3008 6.14821 78.4312 6.14821C74.4415 6.14821 71.2929 9.24599 71.2929 13.1362C71.2929 16.9544 74.4655 20.0762 78.3832 20.0762C82.2768 20.0762 85.4494 16.9544 85.4494 13.1362ZM74.5136 13.1122C74.5136 10.9029 76.2441 9.0779 78.3111 9.0779C80.4982 9.0779 82.2287 10.8549 82.2287 13.1362C82.2287 15.3455 80.4982 17.1465 78.3591 17.1465C76.2441 17.1465 74.5136 15.3455 74.5136 13.1122ZM84.7507 6.44455L89.141 19.7314H92.0257L94.8754 11.5596L97.725 19.7314H100.637L105 6.44455H101.811L99.1985 15.611L96.1832 6.44455H93.5675L90.5879 15.5027L87.9402 6.44455H84.7507ZM56.7013 14.4254H46.4098C46.7964 16.0429 48.1978 17.131 50.1066 17.131C51.4356 17.131 52.3844 16.5942 53.1286 15.5068H56.4839C56.2664 16.1828 55.854 17.0344 55.3466 17.6621C53.9452 19.3037 52.3779 20.0762 50.1791 20.0762C46.0957 20.0762 42.9304 17.0344 42.9304 13.1235C42.9304 9.18839 46.0473 6.07412 49.9858 6.07412C53.9726 6.07412 56.8222 9.11596 56.8222 13.2683C56.8222 13.7511 56.798 13.9668 56.7013 14.4254ZM46.3131 11.8231H53.731C53.3855 10.0006 52.0155 8.94531 50.0342 8.94531C48.1253 8.94531 46.7491 9.92655 46.3131 11.8231ZM33.2224 17.5573V19.7428H42.8191L42.8135 16.733H37.3321L42.6589 8.51893V6.44455H33.4021V9.29683H38.5869L33.2224 17.5573ZM31.6751 19.7276V6.45955H28.7507V8.23182C27.6481 6.7709 26.3297 6.14821 24.4121 6.14821C20.4809 6.14821 17.6524 9.09401 17.6524 13.1415C17.6524 17.1411 20.4569 20.039 24.3401 20.039C26.2098 20.039 27.4803 19.4642 28.7507 18.0033V19.7276H31.6751ZM20.8644 13.2133C20.8644 10.8184 22.4705 9.07006 24.6997 9.07006C27.0248 9.07006 28.6548 10.7465 28.6548 13.1415C28.6548 15.5125 27.0967 17.1171 24.7956 17.1171C22.4705 17.1171 20.8644 15.5365 20.8644 13.2133Z" fill="white"/>
</svg>
