<svg width="24" height="24" viewBox="0 0 24 24" fill="none" xmlns="http://www.w3.org/2000/svg">
<path d="M4.08679 11.3833C4.08679 11.3833 11.9268 8.16574 14.6459 7.03276C15.6882 6.57961 19.223 5.12939 19.223 5.12939C19.223 5.12939 20.8545 4.49497 20.7185 6.03576C20.6732 6.67024 20.3107 8.89079 19.9482 11.2927C19.4043 14.6916 18.8152 18.4076 18.8152 18.4076C18.8152 18.4076 18.7245 19.45 17.9541 19.6312C17.1838 19.8125 15.9148 18.9968 15.6882 18.8155C15.5069 18.6796 12.2894 16.6402 11.1111 15.6432C10.7939 15.3713 10.4313 14.8275 11.1564 14.1931C12.7879 12.6975 14.7365 10.8395 15.9148 9.66125C16.4586 9.1174 17.0024 7.8485 14.7365 9.38929C11.519 11.6099 8.3467 13.6945 8.3467 13.6945C8.3467 13.6945 7.62158 14.1477 6.26206 13.7398C4.90247 13.332 3.31633 12.7882 3.31633 12.7882C3.31633 12.7882 2.22876 12.1084 4.08679 11.3833Z" fill="#97A1A4"/>
</svg>
