<svg width="116" height="43" viewBox="0 0 116 43" fill="none" xmlns="http://www.w3.org/2000/svg">
<path d="M55.9157 18.6346C55.8542 19.5213 55.716 19.9685 54.9099 20.2924L54.9714 20.7936C55.7542 20.7319 56.2995 20.7319 57.282 20.7319C59.8608 20.7319 61.6953 20.755 63.1613 20.8321C63.3839 19.7835 63.5451 18.7888 63.6448 17.5782L63.0998 17.478C62.839 18.2259 62.6393 18.65 62.3937 19.0356C62.0944 19.4596 61.7721 19.745 61.0656 19.8452C60.521 19.93 59.8376 19.9454 58.9321 19.9454C58.0263 19.9454 57.6811 19.7681 57.6425 18.7734C57.6196 18.3724 57.5811 17.2775 57.5811 16.5681V13.8385C58.2489 13.8385 59.6767 13.8616 60.3213 13.9387C61.2271 14.0621 61.5109 14.3628 61.8106 15.2958L62.2941 15.1956C62.2326 14.4091 62.2326 13.9387 62.2326 13.4375C62.2326 12.9363 62.2326 12.4891 62.2941 11.7026L61.8106 11.6024C61.5109 12.5354 61.2271 12.8592 60.3213 12.9595C59.6767 13.0211 58.2719 13.0597 57.5811 13.0597V10.4766C57.5811 9.75179 57.5811 9.01927 57.6425 8.39469C57.704 7.58507 57.8193 7.42314 58.7709 7.42314C59.7226 7.42314 59.999 7.44628 60.5057 7.52338C60.8895 7.58507 61.3501 7.74699 61.6571 8.07085C61.9561 8.39469 62.1788 8.81878 62.4399 9.56672L63.0231 9.46649C62.9619 8.35614 62.8852 7.6082 62.739 6.57495C61.9561 6.63664 61.3268 6.63664 60.5057 6.63664H56.7982C56.2915 6.63664 55.7542 6.63664 54.9637 6.57495L54.9026 7.08387C55.7084 7.40771 55.8463 7.85494 55.9077 8.74168C55.9692 9.4048 55.9692 10.2992 55.9692 11.0086V16.383C55.9692 17.0924 55.9692 17.9792 55.9077 18.65L55.9157 18.6346Z" fill="#EFEEEC"/>
<path d="M66.0541 14.4786L64.8492 17.8328C64.3654 19.1437 64.2275 19.5909 64.2275 20.0535C64.2275 20.5161 64.6266 20.9788 65.0948 20.9788C65.8009 20.9788 66.7296 20.4159 67.7965 18.334L67.3974 18.0487C66.4073 19.4598 66.0082 19.6834 65.7856 19.6834C65.563 19.6834 65.5859 19.5832 65.5859 19.4829C65.5859 19.3827 65.6244 19.2439 65.8471 18.6347L67.1595 14.9182C67.4589 14.0854 67.7812 13.1987 67.7812 12.551C67.7812 11.9032 67.3974 11.564 66.9751 11.564C66.3076 11.564 65.4862 12.3351 64.3349 14.0083L64.7186 14.3553C65.6474 13.2604 66.0464 12.9442 66.2461 12.9442C66.4458 12.9442 66.4073 13.0059 66.4073 13.1292C66.4073 13.3297 66.3458 13.7153 66.062 14.4863L66.0541 14.4786Z" fill="#EFEEEC"/>
<path d="M67.6055 8.15579C68.2119 8.15579 68.6724 7.69316 68.6724 7.084C68.6724 6.47484 68.2119 6.01221 67.6055 6.01221C66.9991 6.01221 66.5386 6.47484 66.5386 7.084C66.5386 7.69316 66.9991 8.15579 67.6055 8.15579Z" fill="#EFEEEC"/>
<path d="M76.4725 17.8562C76.4725 16.3372 75.5285 15.1728 73.571 15.1111L71.1378 15.0263C70.2323 14.9878 69.7718 14.6022 69.7718 14.0162C69.7718 13.4302 69.9097 13.0909 70.5393 12.6052C71.1225 13.0909 71.7904 13.3531 72.6958 13.3531C74.4692 13.3531 75.9196 11.942 75.9196 9.96037C75.9196 7.97871 75.7431 8.52616 75.252 7.97871H77.1403L77.3012 7.23076L77.1403 6.88378C76.4339 6.94547 75.7278 6.96859 75.2288 6.96859C74.0774 6.96859 73.7784 6.56763 72.6117 6.56763C70.8384 6.56763 69.3265 8.06353 69.3265 9.96037C69.3265 11.8572 69.5488 11.4794 70.0094 12.104C68.981 12.8905 68.6205 13.7001 68.6205 14.4866C68.6205 15.2731 69.2036 16.1058 70.0708 16.4066C68.9195 17.1931 68.459 17.941 68.459 18.8894C68.459 20.262 69.6103 21.272 71.8824 21.272C74.1542 21.272 76.4725 19.6759 76.4725 17.8562ZM72.5732 7.36955C73.6784 7.36955 74.3844 8.37966 74.3844 10.0529C74.3844 11.7261 73.7398 12.5358 72.6885 12.5358C71.6369 12.5358 70.8769 11.6028 70.8769 9.82928C70.8769 8.13291 71.583 7.36184 72.5732 7.36184V7.36955ZM72.2047 20.1463C70.5161 20.1463 69.7718 19.4215 69.7718 18.5501C69.7718 17.6788 70.0556 17.2548 70.7616 16.5916C71.5907 16.6533 72.3121 16.6533 73.2178 16.6533C74.73 16.6533 75.3749 17.2624 75.3749 18.2109C75.3749 19.1593 74.5306 20.1463 72.2124 20.1463H72.2047Z" fill="#EFEEEC"/>
<path d="M80.9614 21.2792C82.7497 21.2792 83.9393 20.0224 84.5457 18.511L84.0622 18.2103C83.2332 19.3978 82.4503 19.845 81.1608 19.845C79.8712 19.845 78.2979 18.4339 78.2979 16.352C78.2979 14.2701 78.2979 15.8277 78.3361 15.5809H84.538C84.5765 15.419 84.5765 15.2802 84.5765 15.1183C84.5765 13.1752 83.1029 11.741 81.1684 11.741C78.674 11.741 76.7551 13.8615 76.7551 16.6682C76.7551 19.4749 78.4285 21.2715 80.9458 21.2715L80.9614 21.2792ZM80.7388 12.6509C81.8669 12.6509 82.7959 13.3988 82.8112 14.7713H78.482C78.7278 13.5762 79.5107 12.6509 80.7388 12.6509Z" fill="#EFEEEC"/>
<path d="M88.4986 15.101C87.754 14.8003 87.6311 14.4765 87.5696 13.6437C87.5314 13.0191 87.5314 12.3097 87.5314 11.6851V9.88854C87.5314 8.59313 88.3986 7.64471 89.7882 7.64471C91.1771 7.64471 91.5379 8.41578 91.5379 9.54155V11.6851C91.5379 12.3097 91.5379 13.0191 91.4768 13.6437C91.4153 14.4765 91.3153 14.7926 90.571 15.101L90.6325 15.5637C91.3386 15.502 91.7838 15.502 92.2444 15.502C92.7049 15.502 93.1498 15.502 93.8562 15.5637L93.9174 15.101C93.1727 14.8003 93.0501 14.4765 92.9887 13.6437C92.9504 13.0191 92.9504 12.3097 92.9504 11.6851V9.36418C92.9504 8.55457 92.789 8.05337 92.5281 7.58302C92.0447 6.79652 91.2156 6.32617 90.2331 6.32617C89.2509 6.32617 88.0763 7.13579 87.5314 8.16132L87.5084 8.1382C87.5314 7.62928 87.5696 7.08953 87.6311 6.44182L87.2091 6.27991C86.503 6.9276 86.0039 7.25146 85.0752 7.69097V8.11506C85.8042 8.25385 86.0039 8.43891 86.0654 9.26399C86.1268 9.88854 86.1268 10.5362 86.1268 11.1608V11.6697C86.1268 12.2943 86.1268 13.0037 86.0654 13.6283C86.0039 14.461 85.9042 14.7772 85.1596 15.0856L85.2211 15.5482C85.9271 15.4865 86.3724 15.4865 86.8329 15.4865C87.2935 15.4865 87.7387 15.4865 88.4448 15.5482L88.5063 15.0856L88.4986 15.101Z" fill="#EFEEEC"/>
<path d="M62.394 34.3703C62.0946 34.8329 61.7108 35.1568 60.9818 35.2955C60.3983 35.3958 59.8305 35.3958 58.9247 35.3958C58.0189 35.3958 57.7348 35.2184 57.6351 34.2238C57.5966 33.8229 57.5737 32.7278 57.5737 32.0184V26.4437C57.5737 25.7343 57.5737 24.8475 57.6351 24.1768C57.6966 23.29 57.8348 22.8427 58.6406 22.519L58.5791 22.0099C57.7963 22.0717 57.2513 22.0717 56.7446 22.0717C56.2382 22.0717 55.7392 22.0717 54.9487 22.0099L54.8872 22.519C55.693 22.8427 55.8312 23.29 55.8927 24.1768C55.9541 24.8397 55.9541 25.7343 55.9541 26.4437V31.8181C55.9541 32.5275 55.9541 33.4141 55.8927 34.085C55.8312 34.9718 55.693 35.4189 54.8872 35.7428L54.9487 36.2517C55.7315 36.1901 56.2764 36.1901 57.2666 36.1901C59.8457 36.1901 61.6188 36.2132 63.2077 36.2904C63.43 35.1568 63.6068 34.1313 63.7141 32.8359L63.1309 32.7356C62.8698 33.5221 62.6472 33.9848 62.3863 34.3703H62.394Z" fill="#EFEEEC"/>
<path d="M70.1773 34.0617C70.1387 33.4371 70.1387 32.8511 70.1387 32.2266V30.2911C70.1387 29.3814 69.8546 28.5717 69.5323 28.1091C69.0489 27.3997 68.2813 27.0604 67.2988 27.0604C66.3166 27.0604 65.1038 27.8083 64.72 28.5177L65.1038 29.1653C65.7866 28.618 66.3548 28.3403 67.0379 28.3403C67.7211 28.3403 68.0052 28.5023 68.3042 28.9032C68.5654 29.2503 68.7266 29.736 68.7266 30.3605V31.3475C67.6982 31.6097 66.3701 32.0954 65.6258 32.5812C64.8426 33.0902 64.3591 33.6531 64.3591 34.6015C64.3591 35.5499 65.1652 36.5215 66.4545 36.5215C67.744 36.5215 68.2428 36.0126 68.788 34.7865H68.8262C69.0103 35.6964 69.5323 36.3056 70.9219 36.3596L71.1827 35.5499C70.5381 35.2492 70.2155 34.7403 70.1773 34.0771V34.0617ZM68.7266 33.1596C68.7266 34.5553 67.6214 35.28 66.7924 35.28C65.9634 35.28 65.7866 34.7943 65.7866 34.2468C65.7866 33.6994 66.186 33.0978 67.5599 32.5118C67.9437 32.35 68.3042 32.1881 68.7266 32.0492V33.1596Z" fill="#EFEEEC"/>
<path d="M79.994 24.0996C80.3777 23.3285 80.6 22.9661 80.9609 22.6422L80.8997 22.1796C80.3163 22.2413 80.0322 22.2413 79.5869 22.2413C79.1417 22.2413 78.8041 22.2413 78.2206 22.1796L78.1365 22.6422C78.7426 22.9661 78.8426 23.29 78.8426 23.7141C78.8426 24.1381 78.7659 24.5623 78.2206 25.8346L76.8928 28.9652L75.6418 25.8191C75.0354 24.3002 74.9587 23.9223 74.9587 23.4519C74.9587 22.9816 75.1198 22.8427 75.5651 22.6422L75.5036 22.1796C74.9201 22.2182 74.552 22.2413 74.1144 22.2413C73.6768 22.2413 73.0707 22.2182 72.4872 22.1796L72.4028 22.6422C72.8863 22.9661 73.0245 23.1512 73.3315 23.8142C73.6538 24.5391 73.915 25.2871 74.1373 25.8577L76.1329 30.808L74.6825 33.9617C74.3828 34.6093 74.0758 34.9332 73.6538 34.9332C73.2315 34.9332 73.1474 34.833 72.7637 34.833C72.3799 34.833 71.9961 35.2185 71.9961 35.658C71.9961 36.0975 72.3952 36.5063 72.9401 36.5063C73.485 36.5063 74.1296 36.2055 74.4676 35.8585C74.8666 35.4345 75.2504 34.8098 75.6342 33.9386L79.2032 25.8577C79.4487 25.3102 79.6869 24.7088 79.986 24.0996H79.994Z" fill="#EFEEEC"/>
<path d="M82.9489 27.0142C80.4545 27.0142 78.5356 29.1348 78.5356 31.9415C78.5356 34.7482 80.209 36.5447 82.7266 36.5447C85.244 36.5447 85.7045 35.288 86.3109 33.7765L85.8274 33.4759C84.9984 34.6633 84.2156 35.1106 82.926 35.1106C81.6364 35.1106 80.0628 33.6995 80.0628 31.6176C80.0628 29.5356 80.0628 31.0932 80.1013 30.8464H86.3032C86.3415 30.6846 86.3415 30.5458 86.3415 30.3838C86.3415 28.4407 84.8678 27.0066 82.9413 27.0066L82.9489 27.0142ZM80.2472 30.0445C80.4927 28.8494 81.2756 27.9241 82.5037 27.9241C83.7318 27.9241 84.5608 28.6722 84.5761 30.0445H80.2472Z" fill="#EFEEEC"/>
<path d="M92.659 27.0451C91.715 27.0451 90.7863 27.8163 90.2413 29.1501L90.2181 29.127C90.2413 28.6181 90.2796 27.8163 90.341 27.1684L89.919 27.0066C89.2129 27.6542 88.7139 27.9781 87.7852 28.4176V28.8418C88.5142 28.9805 88.7139 29.1655 88.775 29.9907C88.8365 30.6152 88.8365 31.2628 88.8365 31.8875V32.3964C88.8365 33.0209 88.8365 33.7303 88.775 34.3549C88.7139 35.1877 88.6142 35.5038 87.8696 35.8122L87.9307 36.2748C88.6371 36.2132 89.082 36.2132 89.5426 36.2132C90.0031 36.2132 90.648 36.2132 91.3541 36.2748L91.4156 35.8122C90.5331 35.5501 90.3487 35.1877 90.2875 34.3549C90.249 33.7303 90.249 33.0209 90.249 32.3964V31.448C90.249 29.5125 91.0318 28.3945 91.9835 28.3945C92.4672 28.3945 92.7128 28.7569 93.2348 28.7569C93.7568 28.7569 93.9562 28.595 93.9562 28.0475C93.9562 27.5001 93.488 27.0373 92.6669 27.0373L92.659 27.0451Z" fill="#EFEEEC"/>
<path d="M47.335 6.45947H43.6277V13.9158H47.335V6.45947Z" fill="#EFEEEC"/>
<path d="M39.9202 6.45947H36.3511H36.2053H32.6438V10.1838H36.2053V21.3644H39.9202H43.6275V13.9158H39.9202V6.45947Z" fill="#EFEEEC"/>
<path d="M32.497 28.8207H28.782V21.3644V6.45947H21.3674V21.3644V36.277H28.782H32.497H36.2043H39.9192H43.6265V28.8207H39.9192H36.2043V21.3644H32.497V28.8207Z" fill="#EFEEEC"/>
</svg>
