<svg width="103" height="37" viewBox="0 0 103 37" fill="none" xmlns="http://www.w3.org/2000/svg">
<path d="M49.8378 18.019C49.3048 17.761 48.6242 17.6303 47.8161 17.6303H45.517C44.9041 17.6303 44.4143 17.4598 44.0643 17.1314L44.0472 17.1144C43.7055 16.7541 43.5406 16.3483 43.5406 15.8744C43.5406 15.4005 43.7108 14.963 44.0472 14.6083C44.3861 14.248 44.8509 14.0662 45.4238 14.0662H51.0812V12.8376H45.2136C44.5757 12.8376 44.0279 12.9854 43.5381 13.2866C43.0483 13.5729 42.678 13.9423 42.4072 14.4128C42.1368 14.8845 42.0027 15.3834 42.0027 15.9426C42.0027 16.5984 42.1425 17.1541 42.4208 17.5974C42.7198 18.0486 43.1167 18.3861 43.6313 18.6327C44.1667 18.8601 44.8021 18.976 45.517 18.976H47.9353C48.3423 18.976 48.7047 19.0691 49.0116 19.2544C49.3255 19.4215 49.5585 19.6601 49.7129 19.9636C49.8641 20.2477 49.9345 20.5364 49.9345 20.8751C49.9345 21.2138 49.8514 21.5536 49.6869 21.8627C49.522 22.1752 49.2684 22.4355 48.9377 22.6401C48.6277 22.8242 48.2479 22.9151 47.8183 22.9151H42.3746V24.1414H48.0773C48.7605 24.1414 49.3366 23.988 49.84 23.6732C50.364 23.3549 50.7575 22.9583 51.045 22.4526C51.3357 21.9332 51.4746 21.3945 51.4746 20.8035C51.4746 20.117 51.3291 19.5295 51.0472 19.0635C50.7822 18.6043 50.3856 18.2599 49.839 18.0168L49.8356 18.019H49.8378Z" fill="#EFEEEC"/>
<path d="M63.3462 13.3524C62.4636 12.8239 61.4266 12.5546 60.2675 12.5546C59.1085 12.5546 58.074 12.8239 57.1854 13.3546C56.2989 13.8684 55.5875 14.5866 55.0692 15.489C54.5508 16.3721 54.2883 17.3824 54.2883 18.4894C54.2883 19.5964 54.5508 20.6181 55.0692 21.5148C55.5875 22.4002 56.3002 23.1185 57.1854 23.6492C58.0309 24.1436 59.02 24.4038 60.1201 24.4243H60.2675C61.4266 24.4266 62.4611 24.1686 63.3462 23.6526C64.2497 23.1219 64.9615 22.4036 65.4659 21.5216C65.9842 20.6215 66.247 19.6032 66.247 18.494C66.247 17.3847 65.9842 16.3482 65.4659 15.4652C64.9615 14.5821 64.2497 13.8729 63.3462 13.3569V13.3535V13.3524ZM64.6831 18.4928C64.6831 19.3668 64.498 20.1703 64.1305 20.883C63.7637 21.5842 63.2451 22.149 62.5929 22.5661C61.9427 22.9809 61.1368 23.1991 60.2656 23.1991C59.3938 23.1991 58.6126 22.9866 57.9377 22.5661C57.2855 22.149 56.7672 21.5819 56.3966 20.8806C56.032 20.1715 55.8443 19.368 55.8443 18.494C55.8443 17.62 56.0295 16.8256 56.3966 16.13C56.7637 15.4117 57.2855 14.8355 57.9412 14.4184C58.6126 13.9979 59.397 13.7888 60.2656 13.7888C61.1337 13.7888 61.9316 14.0013 62.5929 14.4218C63.2486 14.8423 63.7672 15.4151 64.134 16.1277C64.4989 16.8256 64.6863 17.62 64.6863 18.4951H64.6831V18.4928Z" fill="#EFEEEC"/>
<path d="M77.651 13.1968C76.8702 12.774 75.9508 12.5581 74.9134 12.5581C73.8755 12.5581 72.9675 12.774 72.1699 13.2025C71.3694 13.6139 70.7569 14.1822 70.2981 14.9311C69.859 15.6744 69.6365 16.5575 69.6365 17.5565V24.146H71.1753V17.5792C71.1753 16.8076 71.3494 16.129 71.6912 15.5665C72.0443 14.9937 72.5116 14.5482 73.0788 14.2379C73.6542 13.9344 74.2702 13.781 74.9134 13.781C75.5567 13.781 76.1667 13.9344 76.7246 14.2379C77.3032 14.5447 77.7705 14.9903 78.1148 15.5687C78.4708 16.1302 78.65 16.803 78.65 17.5747V24.1415H80.1911V17.5519C80.1911 16.5564 79.9606 15.6699 79.5072 14.9266C79.0627 14.1743 78.4556 13.6094 77.6523 13.1923L77.6497 13.1957L77.651 13.1968Z" fill="#EFEEEC"/>
<path d="M85.8002 12.8367H84.2385V24.1439H85.8002V12.8367Z" fill="#EFEEEC"/>
<path d="M92.9327 14.6699C93.6191 14.2698 94.3962 14.0653 95.249 14.0653H96.4172V12.8367H95.3203C94.1441 12.8367 93.0779 13.0924 92.1611 13.5947C91.2439 14.0948 90.5087 14.7836 89.9733 15.6382C89.4435 16.4724 89.1753 17.4316 89.1753 18.4909C89.1753 19.5501 89.4435 20.5139 89.9733 21.3663C90.5062 22.2061 91.2439 22.8846 92.1611 23.387C92.9644 23.8234 94.5372 24.1451 95.2407 24.1451H96.4172V22.9165H95.249C94.3996 22.9165 93.6191 22.721 92.9305 22.3346C92.2632 21.9345 91.7201 21.3924 91.3175 20.7252C90.9336 20.0558 90.7373 19.3035 90.7373 18.4886C90.7373 17.6737 90.9335 16.9191 91.321 16.2497C91.7201 15.5859 92.2641 15.0518 92.9337 14.6688V14.6722L92.9327 14.6699Z" fill="#EFEEEC"/>
<path d="M24.6653 22.0287C19.1749 23.6268 14.6332 25.9578 11.7903 28.6889L11.6648 28.8101C12.4208 29.5035 13.2497 30.1236 14.1458 30.6507L14.3384 30.4224C15.1148 29.5035 15.9467 28.6157 16.8136 27.7786C19.1399 25.5322 21.8018 23.5873 24.6682 22.0259L24.6653 22.0287Z" fill="#EFEEEC"/>
<path d="M24.6653 22.0287C19.1749 23.6268 14.6332 25.9578 11.7903 28.6889L11.6648 28.8101C12.4208 29.5035 13.2497 30.1236 14.1458 30.6507L14.3384 30.4224C15.1148 29.5035 15.9467 28.6157 16.8136 27.7786C19.1399 25.5322 21.8018 23.5873 24.6682 22.0259L24.6653 22.0287Z" fill="#EFEEEC"/>
<path d="M7.17432 19.661C7.39323 22.5106 8.48486 25.1234 10.1982 27.2486L10.277 27.1724C12.0371 25.4898 14.3283 23.9593 17.0924 22.6261C19.5151 21.4564 22.2967 20.453 25.2944 19.661H7.17432Z" fill="#EFEEEC"/>
<path d="M7.17432 19.661C7.39323 22.5106 8.48486 25.1234 10.1982 27.2486L10.277 27.1724C12.0371 25.4898 14.3283 23.9593 17.0924 22.6261C19.5151 21.4564 22.2967 20.453 25.2944 19.661H7.17432Z" fill="#EFEEEC"/>
<path d="M18.3467 7.95033C23.2591 12.694 29.4411 15.831 36.2216 17.0204C35.4043 9.98814 29.2281 4.51733 21.7238 4.51733C19.7419 4.51733 17.8534 4.90066 16.1284 5.59121C16.8289 6.40859 17.5761 7.20342 18.3467 7.95033Z" fill="#EFEEEC"/>
<path d="M18.3467 7.95033C23.2591 12.694 29.4411 15.831 36.2216 17.0204C35.4043 9.98814 29.2281 4.51733 21.7238 4.51733C19.7419 4.51733 17.8534 4.90066 16.1284 5.59121C16.8289 6.40859 17.5761 7.20342 18.3467 7.95033Z" fill="#EFEEEC"/>
<path d="M11.7903 8.5307C14.6332 11.2647 19.1749 13.5929 24.6653 15.1938C21.7989 13.6295 19.137 11.6875 16.8107 9.44112C15.9467 8.60679 15.1148 7.71894 14.3355 6.79727L14.1429 6.56897C13.2468 7.09604 12.4178 7.71612 11.6648 8.4095L11.7903 8.5307Z" fill="#EFEEEC"/>
<path d="M11.7903 8.5307C14.6332 11.2647 19.1749 13.5929 24.6653 15.1938C21.7989 13.6295 19.137 11.6875 16.8107 9.44112C15.9467 8.60679 15.1148 7.71894 14.3355 6.79727L14.1429 6.56897C13.2468 7.09604 12.4178 7.71612 11.6648 8.4095L11.7903 8.5307Z" fill="#EFEEEC"/>
<path d="M18.3467 29.2697C17.5732 30.0166 16.826 30.8115 16.1284 31.6288C17.8505 32.3194 19.7419 32.7027 21.7238 32.7027C29.2281 32.7027 35.4043 27.2319 36.2245 20.1968C29.444 21.3862 23.262 24.5233 18.3496 29.2669L18.3467 29.2697Z" fill="#EFEEEC"/>
<path d="M18.3467 29.2697C17.5732 30.0166 16.826 30.8115 16.1284 31.6288C17.8505 32.3194 19.7419 32.7027 21.7238 32.7027C29.2281 32.7027 35.4043 27.2319 36.2245 20.1968C29.444 21.3862 23.262 24.5233 18.3496 29.2669L18.3467 29.2697Z" fill="#EFEEEC"/>
<path d="M17.0924 14.5931C14.3283 13.26 12.0371 11.7295 10.277 10.0468L10.1982 9.9707C8.48486 12.0959 7.39323 14.7087 7.17432 17.5583H25.2914C22.2938 16.7663 19.5151 15.7629 17.0895 14.5903L17.0924 14.5931Z" fill="#EFEEEC"/>
<path d="M17.0924 14.5931C14.3283 13.26 12.0371 11.7295 10.277 10.0468L10.1982 9.9707C8.48486 12.0959 7.39323 14.7087 7.17432 17.5583H25.2914C22.2938 16.7663 19.5151 15.7629 17.0895 14.5903L17.0924 14.5931Z" fill="#EFEEEC"/>
</svg>
