<svg width="80" height="31" viewBox="0 0 80 31" fill="none" xmlns="http://www.w3.org/2000/svg">
<path d="M35.9802 11.9103C35.9802 13.362 35.0619 14.1976 33.462 14.1976H32.2125V15.9791H30.7974V9.74719H33.4655C35.0619 9.74719 35.9802 10.5309 35.9802 11.9103ZM34.6314 11.9551C34.6314 11.2646 34.1817 10.9193 33.3906 10.9193H32.2125V13.0306H33.3906C34.1817 13.0237 34.6314 12.6663 34.6314 11.9551Z" fill="white"/>
<path d="M38.2153 9.74702V12.8543H41.0647V9.74702H42.485V15.9789H41.0647V14.1025H38.2153V15.972H36.7949V9.74011L38.2153 9.74702Z" fill="white"/>
<path d="M47.9465 14.7327H45.064L44.5638 15.9791H43.0981L45.8308 9.74719H47.2964L49.9837 15.9791H48.4641L47.9465 14.7327ZM47.4411 13.4864L46.514 11.2163L45.5781 13.4864H47.4411Z" fill="white"/>
<path d="M59.9349 14.7327H57.0522L56.5433 15.9791H55.0781L57.8087 9.74719H59.2725L61.9619 15.9791H60.4419L59.9349 14.7327ZM59.4293 13.4864L58.5061 11.2163L57.5701 13.4864H59.4293Z" fill="white"/>
<path d="M52.0586 9.74719V14.7534H54.7547V15.9825H50.6384V9.75064L52.0586 9.74719Z" fill="white"/>
<path d="M32.087 20.1343L35.142 24.1393V20.1343H36.4891V26.3593H35.196L32.1497 22.3629V26.3593H30.7974V20.1343H32.087Z" fill="white"/>
<path d="M42.1912 20.1343V21.3013H38.8137V22.653H41.8426V23.8199H38.8137V25.201H42.2818V26.3593H37.4021V20.1343H42.1912Z" fill="white"/>
<path d="M48.0034 20.1343V21.3272H46.0863V26.3593H44.666V21.3272H42.749V20.1343H48.0034Z" fill="white"/>
<path d="M49.937 20.134L51.2578 24.8329L52.5704 20.134H53.9643L55.2943 24.8329L56.6064 20.134H58.0617L55.9705 26.3642H54.5048L53.2428 21.9224L51.95 26.359H50.4894L48.4138 20.1288L49.937 20.134Z" fill="white"/>
<path d="M64.8847 23.2397C64.8847 25.0264 63.4383 26.3971 61.5281 26.3971C59.6182 26.3971 58.1733 25.0351 58.1733 23.2397C58.1733 21.4443 59.6201 20.103 61.5281 20.103C63.4365 20.103 64.8847 21.4461 64.8847 23.2397ZM59.6201 23.2397C59.6168 23.7496 59.8181 24.24 60.1791 24.6031C60.5405 24.9662 61.0329 25.1725 61.5474 25.1766C61.933 25.1804 62.311 25.0707 62.6332 24.8615C62.9555 24.6523 63.2082 24.353 63.3585 24.0015C63.5092 23.65 63.5508 23.2621 63.479 22.8871C63.4067 22.512 63.2234 22.1667 62.9531 21.8948C62.6824 21.6229 62.3365 21.4366 61.959 21.3597C61.5814 21.2828 61.1893 21.3186 60.8321 21.4627C60.4753 21.6067 60.1696 21.8525 59.9537 22.1688C59.7378 22.4852 59.6215 22.8579 59.6201 23.2397Z" fill="white"/>
<path d="M69.2621 26.3593L68.2651 24.5847H66.8188V26.3593H65.3999V20.1343H68.1309C69.7762 20.1343 70.7103 20.9181 70.7103 22.2974C70.7103 23.2589 70.2973 23.9528 69.5319 24.3085L70.8794 26.3593H69.2621ZM66.8221 23.4039H68.1342C68.9167 23.4039 69.3646 23.0483 69.3646 22.337C69.3646 21.6258 68.9167 21.3013 68.1342 21.3013H66.8221V23.4039Z" fill="white"/>
<path d="M75.5281 26.3593L73.7213 23.8234L72.8151 24.8194V26.3593H71.4014V20.1343H72.8217V22.9654L75.436 20.1343H77.0793L74.7126 22.7341L77.2362 26.3593H75.5281Z" fill="white"/>
<path d="M20.3055 15.9926H7.7229V20.1478H20.3055V15.9926Z" fill="white"/>
<path d="M24.5021 9.76086H20.3074V15.9928H24.5021V9.76086Z" fill="white"/>
<path d="M7.72236 20.1482H3.52759V21.1874V22.2266V26.3801H7.72236V22.2266V20.1482Z" fill="white"/>
<path d="M20.3067 5.60559H7.72236H7.11937H3.52759V13.916V15.2418V15.9927H7.72236V15.2418V13.916V9.76078H20.3067V5.60559Z" fill="white"/>
<path d="M20.3055 15.9926H7.7229V20.1478H20.3055V15.9926Z" fill="white"/>
</svg>
