<svg width="116" height="27" viewBox="0 0 116 27" fill="none" xmlns="http://www.w3.org/2000/svg">
<mask id="mask0_431_2235" style="mask-type:luminance" maskUnits="userSpaceOnUse" x="7" y="6" width="103" height="16">
<path d="M109.538 6.01562H7.58813V21.2959H109.538V6.01562Z" fill="white"/>
</mask>
<g mask="url(#mask0_431_2235)">
<path d="M27.3762 14.2359H32.0558L34.4186 9.15011L32.4229 5.97729H12.5343L10.8598 9.56496H29.5478L27.3762 14.2359ZM9.24635 17.6776L7.54883 21.3344H17.8639L19.6685 19.506L17.8639 17.6776H9.24635ZM50.0786 12.2077H40.4517L41.981 8.93501H51.6003L50.0786 12.2077ZM36.2079 21.3344L39.0983 15.1347L48.7099 15.1501L45.8348 21.3344H50.5145L56.2723 8.95037L54.3989 5.9696H40.6581L37.2937 8.93501L33.2334 17.6776H31.4823L24.4705 11.7929H13.9948L12.2897 15.4497H23.14L30.0372 21.3344H36.2079ZM85.543 5.9696H80.8787L76.5508 12.2077H69.6766L72.5822 5.9696H67.9026L60.7531 21.3344H65.4328L68.3231 15.1347L77.6136 15.1577L78.5388 15.8722L75.9926 21.3344H80.6722L83.4403 15.3882L80.4505 13.0835L85.543 5.9696ZM60.4396 5.9696L53.2901 21.3344H57.9774L65.1193 5.9696H60.4396ZM104.904 5.9696L99.1461 18.3613L89.5039 18.369L95.2694 5.9696H90.5897L84.8243 18.3613L86.6977 21.3344H100.438L103.076 19.9669L109.584 5.9696H104.904Z" fill="white"/>
<path d="M27.3762 14.2359H32.0558L34.4186 9.15011L32.4229 5.97729H12.5343L10.8598 9.56496H29.5478L27.3762 14.2359ZM9.24635 17.6776L7.54883 21.3344H17.8639L19.6685 19.506L17.8639 17.6776H9.24635ZM50.0786 12.2077H40.4517L41.981 8.93501H51.6003L50.0786 12.2077ZM36.2079 21.3344L39.0983 15.1347L48.7099 15.1501L45.8348 21.3344H50.5145L56.2723 8.95037L54.3989 5.9696H40.6581L37.2937 8.93501L33.2334 17.6776H31.4823L24.4705 11.7929H13.9948L12.2897 15.4497H23.14L30.0372 21.3344H36.2079ZM85.543 5.9696H80.8787L76.5508 12.2077H69.6766L72.5822 5.9696H67.9026L60.7531 21.3344H65.4328L68.3231 15.1347L77.6136 15.1577L78.5389 15.8722L75.9926 21.3344H80.6722L83.4403 15.3882L80.4505 13.0835L85.543 5.9696ZM60.4396 5.9696L53.2901 21.3344H57.9774L65.1193 5.9696H60.4396ZM104.904 5.9696L99.1462 18.3613L89.5039 18.369L95.2694 5.9696H90.5897L84.8243 18.3613L86.6977 21.3344H100.438L103.076 19.9669L109.584 5.9696H104.904Z" stroke="url(#paint0_linear_431_2235)" stroke-width="0.764016"/>
</g>
<defs>
<linearGradient id="paint0_linear_431_2235" x1="4.29948" y1="33.5747" x2="45.0269" y2="-47.3972" gradientUnits="userSpaceOnUse">
<stop stop-color="white"/>
<stop offset="0.97" stop-color="white" stop-opacity="0"/>
</linearGradient>
</defs>
</svg>
