<svg width="116" height="39" viewBox="0 0 116 39" fill="none" xmlns="http://www.w3.org/2000/svg">
<path fill-rule="evenodd" clip-rule="evenodd" d="M21.3103 28.4405L30.1115 13.1962C30.3773 12.7359 30.5172 12.2138 30.5174 11.6823C30.5175 11.1508 30.3778 10.6286 30.1123 10.1681C29.8468 9.70769 29.4648 9.3252 29.0048 9.05908C28.5446 8.79295 28.0226 8.65255 27.4912 8.65198H24.368C24.3597 8.65198 24.3517 8.65527 24.3459 8.66113C24.34 8.66698 24.3367 8.67493 24.3367 8.68321C24.3367 8.69149 24.34 8.69944 24.3459 8.7053C24.3517 8.71115 24.3597 8.71444 24.368 8.71444C24.7441 8.81444 25.0921 8.99967 25.3851 9.25577C25.6782 9.51187 25.9084 9.83199 26.0579 10.1913C26.2073 10.5507 26.2721 10.9396 26.2471 11.328C26.2222 11.7164 26.1082 12.0938 25.9139 12.431L18.5463 25.2049C18.3516 25.539 18.083 25.8241 17.7612 26.0385C17.4393 26.2529 17.0727 26.3909 16.6893 26.4418C16.3059 26.4928 15.916 26.4553 15.5493 26.3324C15.1826 26.2095 14.8489 26.0044 14.5737 25.7327C14.5687 25.7261 14.5613 25.7217 14.5531 25.7205C14.5449 25.7193 14.5365 25.7214 14.5299 25.7264C14.5233 25.7314 14.5189 25.7388 14.5178 25.747C14.5166 25.7552 14.5187 25.7635 14.5236 25.7702L16.0665 28.4405C16.3326 28.9002 16.715 29.2819 17.1752 29.5473C17.6354 29.8126 18.1572 29.9522 18.6885 29.9522C19.2196 29.9522 19.7415 29.8126 20.2017 29.5473C20.6619 29.2819 21.0442 28.9002 21.3103 28.4405ZM16.6412 8.65198H19.6925C20.0436 8.65157 20.3886 8.74363 20.6928 8.9189C20.997 9.09417 21.2496 9.34646 21.4254 9.65039C21.6011 9.95432 21.6936 10.2992 21.6937 10.6502C21.6938 11.0013 21.6015 11.3462 21.426 11.6502L15.6074 21.7069C15.4321 22.0111 15.1797 22.2638 14.8757 22.4394C14.5717 22.6151 14.2267 22.7076 13.8756 22.7076C13.5245 22.7076 13.1796 22.6151 12.8755 22.4394C12.5715 22.2638 12.3191 22.0111 12.1438 21.7069L10.5822 18.9959C10.5773 18.9894 10.5751 18.981 10.5763 18.9728C10.5774 18.9646 10.5818 18.9572 10.5885 18.9522C10.5951 18.9473 10.6034 18.9451 10.6116 18.9463C10.6198 18.9474 10.6272 18.9519 10.6322 18.9585C10.8015 19.1088 11.002 19.2197 11.2193 19.2833C11.4365 19.3469 11.6652 19.3617 11.8888 19.3264C12.1125 19.2912 12.3255 19.2069 12.5127 19.0795C12.6999 18.9522 12.8566 18.785 12.9715 18.59L17.4189 10.8975C17.5281 10.7062 17.5947 10.4935 17.6142 10.2741C17.6336 10.0546 17.6055 9.83357 17.5316 9.626C17.4578 9.41843 17.3401 9.22924 17.1863 9.07138C17.0326 8.91352 16.8467 8.7907 16.6412 8.71132C16.635 8.70927 16.6295 8.70529 16.6256 8.69996C16.6218 8.69464 16.6197 8.68823 16.6197 8.68165C16.6197 8.67507 16.6218 8.66866 16.6256 8.66334C16.6295 8.65801 16.635 8.65403 16.6412 8.65198ZM7.63911 9.09569C8.07208 8.80639 8.58111 8.65198 9.10184 8.65198C9.4477 8.65157 9.79025 8.71939 10.1099 8.85156C10.4295 8.98372 10.7199 9.17764 10.9645 9.42221C11.209 9.66677 11.4029 9.95717 11.5351 10.2768C11.6673 10.5964 11.7351 10.939 11.7347 11.2848C11.7347 11.8055 11.5803 12.3146 11.291 12.7476C11.0017 13.1805 10.5905 13.518 10.1094 13.7172C9.62829 13.9165 9.09892 13.9686 8.5882 13.8671C8.07748 13.7655 7.60835 13.5147 7.24014 13.1465C6.87193 12.7783 6.62117 12.3092 6.51958 11.7985C6.418 11.2877 6.47013 10.7584 6.66941 10.2773C6.86868 9.79619 7.20614 9.385 7.63911 9.09569ZM48.6144 13.429H51.2441L46.1778 25.1752H43.8811L38.8143 13.429H41.4441L45.0205 21.9844L48.6144 13.429ZM64.1917 23.0188H57.6524V20.354H63.6482V18.2326H57.6524V15.5854H64.1567V13.429H55.2679V25.1752H64.1917V23.0188ZM77.5118 13.429H79.8963V25.1752H77.8974L71.3935 17.6366V25.1752H69.009V13.429H71.0075L77.5118 21.178V13.429ZM95.0917 13.429H92.7072V19.9157C92.7072 20.8975 92.4619 21.6864 91.971 22.2825C91.48 22.8786 90.8316 23.1591 90.0428 23.1591C89.2009 23.1591 88.5171 22.8786 88.009 22.2825C87.5005 21.6864 87.2552 20.8975 87.2552 19.9157V13.429H84.8707V19.9157C84.8707 21.5637 85.3438 22.8961 86.2912 23.9129C87.2377 24.9297 88.4825 25.4382 90.0428 25.4382C91.5507 25.4382 92.7776 24.9297 93.7067 23.9129C94.6186 22.8961 95.0917 21.5637 95.0917 19.9157V13.429ZM101.121 14.1653C101.928 13.4991 103.015 13.166 104.382 13.166C105.574 13.166 106.591 13.4816 107.433 14.0777C108.274 14.6913 108.801 15.5152 109.028 16.5497L106.644 17.0405C106.557 16.497 106.294 16.0587 105.873 15.7257C105.434 15.3926 104.926 15.2172 104.33 15.2172C103.751 15.2172 103.296 15.3575 102.945 15.638C102.594 15.9185 102.419 16.2692 102.419 16.6724C102.419 17.321 102.805 17.7242 103.593 17.8645L106.118 18.3729C107.082 18.5833 107.836 18.9866 108.38 19.5476C108.923 20.1086 109.204 20.8449 109.204 21.739C109.204 22.8786 108.765 23.7727 107.924 24.4389C107.065 25.105 105.943 25.4382 104.54 25.4382C103.243 25.4382 102.121 25.1401 101.209 24.5441C100.298 23.948 99.7713 23.0715 99.6314 21.9494L102.138 21.4409C102.436 22.7208 103.313 23.3519 104.768 23.3519C105.434 23.3519 105.943 23.2117 106.311 22.9312C106.661 22.6506 106.854 22.3 106.854 21.8617C106.854 21.5111 106.749 21.2481 106.538 21.0378C106.328 20.8449 105.977 20.6871 105.487 20.5819L102.997 20.1086C100.929 19.6878 99.912 18.5658 99.912 16.7424C99.912 15.6906 100.315 14.8315 101.121 14.1653Z" fill="#EFEEEC"/>
</svg>
