<svg width="99" height="31" viewBox="0 0 99 31" fill="none" xmlns="http://www.w3.org/2000/svg">
<path fill-rule="evenodd" clip-rule="evenodd" d="M16.5526 3.75843L35.2287 3.78388C36.9481 3.78623 38.3399 5.0582 38.3373 6.62491L38.3094 23.6423C38.3069 25.209 36.9109 26.4772 35.1915 26.4748L16.5154 26.4494C14.796 26.447 13.4042 25.1751 13.4067 23.6083L13.4347 6.59097C13.4373 5.02425 14.8332 3.75608 16.5526 3.75843ZM31.2389 12.0576L31.24 12.0837C31.2515 12.3799 31.2683 12.8096 30.805 12.7082C30.7721 12.7011 30.7391 12.6937 30.7057 12.6862C30.2534 12.585 29.7264 12.467 28.554 12.6106C27.6462 12.7218 27.0247 12.9618 26.4618 13.1791L26.3663 13.216C25.9189 13.3881 25.6467 13.5036 25.3749 13.6189C25.191 13.6968 25.0074 13.7748 24.7699 13.87C23.6811 14.3068 23.1358 14.3239 22.7244 14.3367C22.3932 14.347 21.6838 14.3047 21.1129 13.819C21.1129 13.819 20.6511 13.3943 20.5284 12.7603C20.477 12.4947 20.4766 12.4595 20.4738 12.1875V12.187C20.4736 12.1582 20.4732 12.1268 20.4728 12.0921C20.4398 9.3378 22.8138 7.06696 25.7568 7.0377C28.6998 7.00843 31.2051 9.23076 31.2389 12.0576ZM21.5532 14.9327C20.8251 14.4804 20.4581 15.1458 20.6863 15.4704L25.9725 23.5317C26.0433 23.6623 26.246 23.6583 26.3104 23.525L31.1614 14.3887C31.3196 14.0056 31.2383 13.7361 30.8046 13.604C29.9514 13.3441 29.291 13.405 28.7066 13.5139C27.859 13.6719 27.2137 13.8972 26.4817 14.1527C26.4254 14.1724 26.3685 14.1922 26.311 14.2122C26.1992 14.2511 25.8006 14.399 24.9083 14.7435C24.0162 15.088 23.7184 15.1575 23.3371 15.2287C22.4971 15.3853 22.0096 15.2162 21.5532 14.9327Z" fill="white"/>
<path fill-rule="evenodd" clip-rule="evenodd" d="M53.0678 8.88774C52.3305 8.67986 51.6458 8.57593 50.961 8.57593C49.6969 8.57593 48.5383 8.88774 47.4851 9.40736C46.4315 9.97895 45.6414 10.7584 45.062 11.7977C44.4826 12.837 44.2192 13.9802 44.2192 15.3312C44.2192 16.6823 44.5353 17.8255 45.1148 18.8648C45.6939 19.904 46.5366 20.6836 47.5373 21.2551C48.5383 21.8267 49.6444 22.1385 50.9085 22.1385C52.0671 22.1385 53.1207 21.9306 54.0688 21.411C55.0169 20.9433 55.7542 20.2158 56.3336 19.2285C56.9132 18.2412 57.1763 17.098 57.1763 15.747V15.1754C57.1763 15.1027 57.1766 15.019 57.1766 14.9291V14.8214C57.1766 14.7012 57.0781 14.6037 56.9562 14.6037H51.4967C51.3748 14.6037 51.2763 14.7012 51.2763 14.8214V16.7245C51.2763 16.8447 51.3748 16.9421 51.4967 16.9421H53.9884C54.0783 16.9421 54.1473 17.021 54.1312 17.1082C54.079 17.3888 54.0054 17.6436 53.9108 17.8775C53.7 18.449 53.3312 18.8128 52.8044 19.1246C52.3305 19.3844 51.6986 19.5403 50.9085 19.5403C50.2763 19.5403 49.6444 19.3325 49.1176 19.0207C48.5383 18.6569 48.1169 18.1892 47.8007 17.5657C47.4851 16.9421 47.3268 16.2146 47.3268 15.3832C47.3268 14.5518 47.4851 13.8243 47.8007 13.2007C48.1169 12.5772 48.5383 12.0575 49.1176 11.7457C49.6969 11.382 50.3291 11.2261 51.0139 11.2261C51.6458 11.2261 52.278 11.382 52.8044 11.6418C53.2727 11.8727 53.6993 12.2679 54.0471 12.7543C54.1191 12.8547 54.2593 12.8836 54.3621 12.8143L56.3217 11.4962C56.4173 11.4319 56.4469 11.3052 56.3838 11.2093C56.0239 10.6619 55.5421 10.1998 55.0169 9.82307C54.3847 9.40736 53.8054 9.09557 53.0678 8.88774ZM69.9382 9.30842L72.2886 8.69766C72.4286 8.66133 72.5652 8.76541 72.5652 8.90812V21.713C72.5652 21.8332 72.4666 21.9306 72.3448 21.9306H69.9943C69.8725 21.9306 69.7736 21.8332 69.7736 21.713V9.51886C69.7736 9.42001 69.8413 9.33359 69.9382 9.30842ZM97.6653 14.7076C98.0338 14.4997 98.4026 14.3958 98.824 14.3958C99.2979 14.3958 99.6667 14.5517 99.9826 14.7076C100.299 14.8635 100.562 15.1753 100.773 15.591C100.984 16.0067 101.089 16.4744 101.089 17.046C101.089 17.6176 100.984 18.0853 100.773 18.501C100.615 18.9167 100.351 19.2285 99.9826 19.4363C99.6667 19.6442 99.2453 19.7481 98.824 19.7481C98.4026 19.7481 97.9813 19.6442 97.6653 19.4363C97.3491 19.2285 97.086 18.9167 96.8751 18.501C96.6646 18.0853 96.5592 17.6176 96.5592 17.046C96.5592 16.4744 96.6646 16.0067 96.8751 15.591C97.0331 15.2273 97.2965 14.9155 97.6653 14.7076ZM101.458 12.5771C100.72 12.1614 99.8246 11.9535 98.824 11.9535C97.8758 11.9535 96.9806 12.1614 96.1904 12.5771C95.4002 12.9928 94.8209 13.6164 94.347 14.3958C93.8728 15.1753 93.6623 16.0587 93.6623 17.046C93.6623 18.0333 93.9256 18.9167 94.347 19.6962C94.7684 20.4756 95.4002 21.0992 96.1904 21.5149C96.9806 21.9306 97.8758 22.1384 98.824 22.1384C99.7721 22.1384 100.667 21.9306 101.458 21.5149C102.248 21.0992 102.827 20.4756 103.301 19.6962C103.775 18.9167 103.986 18.0333 103.986 17.046C103.986 16.0587 103.722 15.1753 103.301 14.3958C102.88 13.6164 102.248 12.9928 101.458 12.5771ZM81.5214 20.9401C81.5424 20.9071 81.6028 20.9223 81.6028 20.9611V21.7131C81.6028 21.8332 81.7017 21.9307 81.8235 21.9307H84.1737C84.2955 21.9307 84.3944 21.8332 84.3944 21.7131V12.483C84.3944 12.3629 84.2955 12.2654 84.1737 12.2654H81.8235C81.7017 12.2654 81.6028 12.3629 81.6028 12.483V13.3194C81.6028 13.3909 81.5069 13.4208 81.4626 13.3642C81.3148 13.1745 81.1503 12.9982 80.9706 12.837C80.3913 12.2654 79.6011 12.0056 78.653 12.0056C77.8106 12.0056 77.073 12.2135 76.3883 12.6812C75.7561 13.0969 75.2296 13.7204 74.8608 14.4999C74.4923 15.2794 74.334 16.1627 74.334 17.0981C74.334 18.0334 74.4923 18.9168 74.8608 19.6962C75.2296 20.4758 75.7035 21.0473 76.3883 21.515C77.0205 21.9826 77.8106 22.1905 78.653 22.1905C79.654 22.1905 80.3913 21.8787 81.0232 21.463C81.2646 21.3044 81.4307 21.0833 81.5214 20.9401ZM80.5493 19.3845C80.1808 19.5923 79.812 19.6962 79.3906 19.6962C78.9693 19.6962 78.6005 19.5923 78.2317 19.3845C77.9157 19.1766 77.6523 18.8648 77.4418 18.4492C77.2838 18.0334 77.1784 17.5658 77.1784 17.0461C77.1784 16.5264 77.231 16.1108 77.4418 15.695C77.6523 15.3313 77.9157 15.0195 78.2317 14.8117C78.6005 14.6038 78.9693 14.4999 79.3906 14.4999C79.812 14.4999 80.2333 14.6038 80.5493 14.8117C80.8652 15.0195 81.1286 15.2794 81.3394 15.695C81.4974 16.0588 81.6028 16.5264 81.6028 17.0461C81.6028 17.5658 81.55 18.0334 81.3394 18.4492C81.1286 18.8648 80.8652 19.1766 80.5493 19.3845ZM90.5236 14.3959C90.4832 14.3959 90.45 14.4284 90.45 14.4684V18.1892C90.45 19.0726 90.8188 19.5402 91.5565 19.5402H92.3893C92.5112 19.5402 92.6097 19.6377 92.6097 19.7579V21.713C92.6097 21.8332 92.5112 21.9306 92.3893 21.9306H91.1876C90.0815 21.9306 89.1863 21.6188 88.6066 20.9952C87.9748 20.3717 87.6585 19.4884 87.6585 18.3451V14.4684C87.6585 14.4284 87.6256 14.3959 87.5849 14.3959H85.9553C85.8043 14.3959 85.6979 14.2493 85.7465 14.1081L86.3317 12.4128C86.3619 12.3246 86.446 12.2653 86.5402 12.2653H87.5849C87.6256 12.2653 87.6585 12.2329 87.6585 12.1928V9.59142C87.6585 9.49258 87.7261 9.40616 87.823 9.38099L90.2658 8.74626C90.3591 8.72205 90.45 8.79142 90.45 8.88655V12.1928C90.45 12.2329 90.4832 12.2653 90.5236 12.2653H92.4488C92.5998 12.2653 92.7062 12.4119 92.6576 12.5531L92.0724 14.2484C92.0422 14.3366 91.9581 14.3959 91.8635 14.3959H90.5236ZM63.3692 11.9535C64.3173 11.9535 65.1075 12.1614 65.7919 12.5771C66.477 12.9928 67.056 13.6164 67.4248 14.3958C67.8462 15.1753 68.0041 16.0587 68.0041 17.046V17.5039C68.0041 17.6241 67.9056 17.7215 67.7838 17.7215H61.5327C61.4434 17.7215 61.3747 17.7993 61.3899 17.886C61.4358 18.1461 61.5009 18.3745 61.5784 18.5529C61.7892 18.9687 62.0526 19.2804 62.3682 19.4363C62.6845 19.5922 63.1058 19.7481 63.6326 19.7481C64.1065 19.7481 64.5807 19.6442 64.8967 19.4883C65.2014 19.3595 65.4701 19.1242 65.7029 18.841C65.7831 18.7436 65.9282 18.7235 66.0268 18.8026L67.6288 20.0838C67.7207 20.1575 67.7378 20.2903 67.6626 20.3808C67.2136 20.9225 66.6737 21.3352 66.0028 21.6188C65.2655 21.9306 64.4753 22.0865 63.6326 22.0865C62.6316 22.0865 61.7363 21.8786 60.9465 21.4629C60.1563 21.0472 59.577 20.4236 59.1556 19.6442C58.734 18.8647 58.5234 17.9813 58.5234 16.994C58.5234 16.0067 58.734 15.1233 59.1556 14.3439C59.577 13.5644 60.1563 12.9928 60.8936 12.5252C61.6309 12.1614 62.4211 11.9535 63.3692 11.9535ZM61.5948 15.9028C61.5018 15.9028 61.4322 15.819 61.4542 15.7301C61.5465 15.3563 61.6805 15.0501 61.8418 14.8115C62.1577 14.3439 62.6845 14.0841 63.3692 14.0841C64.0011 14.0841 64.5279 14.3439 64.8441 14.8115C65.0014 15.0445 65.1328 15.3549 65.2248 15.7299C65.2468 15.8189 65.1768 15.9028 65.0842 15.9028H61.5948Z" fill="white"/>
</svg>
