<svg width="116" height="31" viewBox="0 0 116 31" fill="none" xmlns="http://www.w3.org/2000/svg">
<path fill-rule="evenodd" clip-rule="evenodd" d="M15.9914 3.30835L34.6674 3.33381C36.3869 3.33615 37.7787 4.60812 37.7761 6.17484L37.7482 23.1922C37.7456 24.7589 36.3496 26.0271 34.6302 26.0247L15.9541 25.9993C14.2347 25.9969 12.8429 24.725 12.8455 23.1582L12.8734 6.1409C12.876 4.57418 14.2719 3.30601 15.9914 3.30835ZM30.6777 11.6075L30.6787 11.6336C30.6902 11.9299 30.707 12.3595 30.2437 12.2582C30.2109 12.251 30.1778 12.2436 30.1444 12.2361C29.6921 12.1349 29.1651 12.0169 27.9927 12.1605C27.0849 12.2718 26.4634 12.5117 25.9005 12.729L25.805 12.7659C25.3576 12.938 25.0854 13.0535 24.8136 13.1688C24.6298 13.2468 24.4461 13.3247 24.2086 13.4199C23.1198 13.8568 22.5745 13.8738 22.1631 13.8866C21.8319 13.8969 21.1225 13.8546 20.5516 13.3689C20.5516 13.3689 20.0898 12.9442 19.9671 12.3102C19.9157 12.0446 19.9153 12.0094 19.9126 11.7374V11.7369C19.9123 11.7081 19.9119 11.6767 19.9115 11.6421C19.8785 8.88773 22.2525 6.61689 25.1955 6.58763C28.1385 6.55836 30.6438 8.78069 30.6777 11.6075ZM20.9919 14.4827C20.2638 14.0304 19.8968 14.6957 20.125 15.0204L25.4112 23.0817C25.482 23.2122 25.6847 23.2082 25.7491 23.0749L30.6002 13.9386C30.7583 13.5555 30.677 13.2861 30.2433 13.154C29.3901 12.894 28.7297 12.9549 28.1454 13.0638C27.2977 13.2219 26.6524 13.4471 25.9204 13.7026C25.8641 13.7223 25.8072 13.7421 25.7497 13.7622C25.6379 13.8011 25.2393 13.9489 24.3471 14.2935C23.4549 14.638 23.1571 14.7075 22.7758 14.7786C21.9358 14.9352 21.4483 14.7661 20.9919 14.4827Z" fill="white"/>
<path fill-rule="evenodd" clip-rule="evenodd" d="M52.5065 8.43779C51.7692 8.22991 51.0845 8.12598 50.3997 8.12598C49.1357 8.12598 47.977 8.43779 46.9238 8.9574C45.8702 9.529 45.0802 10.3085 44.5007 11.3477C43.9213 12.387 43.658 13.5302 43.658 14.8812C43.658 16.2323 43.974 17.3756 44.5535 18.4148C45.1326 19.4541 45.9753 20.2336 46.976 20.8052C47.977 21.3768 49.0831 21.6885 50.3472 21.6885C51.5058 21.6885 52.5594 21.4807 53.5075 20.9611C54.4557 20.4933 55.193 19.7659 55.7723 18.7785C56.3519 17.7912 56.615 16.6481 56.615 15.297V14.7254C56.615 14.6528 56.6153 14.569 56.6153 14.4792V14.3714C56.6153 14.2512 56.5168 14.1538 56.395 14.1538H50.9354C50.8135 14.1538 50.715 14.2512 50.715 14.3714V16.2746C50.715 16.3947 50.8135 16.4922 50.9354 16.4922H53.4271C53.5171 16.4922 53.586 16.571 53.5699 16.6582C53.5177 16.9389 53.4441 17.1937 53.3496 17.4275C53.1387 17.9991 52.7699 18.3628 52.2431 18.6746C51.7692 18.9344 51.1374 19.0904 50.3472 19.0904C49.715 19.0904 49.0831 18.8825 48.5563 18.5707C47.977 18.207 47.5557 17.7393 47.2394 17.1157C46.9238 16.4922 46.7655 15.7646 46.7655 14.9333C46.7655 14.1018 46.9238 13.3744 47.2394 12.7508C47.5557 12.1272 47.977 11.6076 48.5563 11.2958C49.1357 10.932 49.7679 10.7761 50.4526 10.7761C51.0845 10.7761 51.7167 10.932 52.2431 11.1919C52.7115 11.4228 53.1381 11.8179 53.4859 12.3043C53.5578 12.4047 53.698 12.4336 53.8008 12.3644L55.7605 11.0463C55.856 10.9819 55.8856 10.8552 55.8225 10.7594C55.4626 10.2119 54.9808 9.74984 54.4557 9.37312C53.8235 8.9574 53.2441 8.64562 52.5065 8.43779ZM69.3769 8.85847L71.7274 8.24771C71.8673 8.21138 72.0039 8.31546 72.0039 8.45817V21.263C72.0039 21.3832 71.9054 21.4807 71.7835 21.4807H69.4331C69.3112 21.4807 69.2124 21.3832 69.2124 21.263V9.0689C69.2124 8.97006 69.28 8.88364 69.3769 8.85847ZM97.104 14.2577C97.4725 14.0498 97.8413 13.9459 98.2627 13.9459C98.7366 13.9459 99.1054 14.1018 99.4213 14.2577C99.7376 14.4136 100.001 14.7254 100.212 15.141C100.422 15.5568 100.527 16.0244 100.527 16.596C100.527 17.1676 100.422 17.6353 100.212 18.051C100.054 18.4668 99.7901 18.7785 99.4213 18.9864C99.1054 19.1942 98.684 19.2982 98.2627 19.2982C97.8413 19.2982 97.42 19.1942 97.104 18.9864C96.7878 18.7785 96.5247 18.4668 96.3139 18.051C96.1034 17.6353 95.9979 17.1676 95.9979 16.596C95.9979 16.0244 96.1034 15.5568 96.3139 15.141C96.4718 14.7773 96.7352 14.4656 97.104 14.2577ZM100.896 12.1271C100.159 11.7114 99.2634 11.5036 98.2627 11.5036C97.3145 11.5036 96.4193 11.7114 95.6291 12.1271C94.839 12.5429 94.2596 13.1664 93.7857 13.9459C93.3115 14.7254 93.101 15.6087 93.101 16.596C93.101 17.5833 93.3644 18.4668 93.7857 19.2462C94.2071 20.0257 94.839 20.6492 95.6291 21.0649C96.4193 21.4806 97.3145 21.6885 98.2627 21.6885C99.2108 21.6885 100.106 21.4806 100.896 21.0649C101.686 20.6492 102.266 20.0257 102.74 19.2462C103.214 18.4668 103.424 17.5833 103.424 16.596C103.424 15.6087 103.161 14.7254 102.74 13.9459C102.318 13.1664 101.686 12.5429 100.896 12.1271ZM80.9601 20.4902C80.9811 20.4572 81.0416 20.4723 81.0416 20.5112V21.2631C81.0416 21.3833 81.1404 21.4807 81.2623 21.4807H83.6124C83.7342 21.4807 83.8331 21.3833 83.8331 21.2631V12.0331C83.8331 11.9129 83.7342 11.8155 83.6124 11.8155H81.2623C81.1404 11.8155 81.0416 11.9129 81.0416 12.0331V12.8695C81.0416 12.9409 80.9457 12.9709 80.9013 12.9142C80.7535 12.7245 80.589 12.5483 80.4094 12.3871C79.83 11.8155 79.0399 11.5556 78.0917 11.5556C77.2493 11.5556 76.5117 11.7635 75.827 12.2312C75.1948 12.6469 74.6683 13.2705 74.2995 14.05C73.931 14.8294 73.7727 15.7128 73.7727 16.6481C73.7727 17.5835 73.931 18.4669 74.2995 19.2463C74.6683 20.0258 75.1422 20.5974 75.827 21.065C76.4592 21.5327 77.2493 21.7406 78.0917 21.7406C79.0927 21.7406 79.83 21.4288 80.4619 21.0131C80.7033 20.8544 80.8695 20.6333 80.9601 20.4902ZM79.988 18.9345C79.6195 19.1424 79.2507 19.2463 78.8294 19.2463C78.408 19.2463 78.0392 19.1424 77.6704 18.9345C77.3544 18.7267 77.091 18.4149 76.8805 17.9992C76.7226 17.5834 76.6171 17.1158 76.6171 16.5962C76.6171 16.0765 76.6697 15.6608 76.8805 15.2451C77.091 14.8814 77.3544 14.5695 77.6704 14.3617C78.0392 14.1538 78.408 14.05 78.8294 14.05C79.2507 14.05 79.6721 14.1538 79.988 14.3617C80.3039 14.5695 80.5673 14.8294 80.7782 15.2451C80.9361 15.6088 81.0416 16.0765 81.0416 16.5962C81.0416 17.1158 80.9887 17.5834 80.7782 17.9992C80.5673 18.4149 80.3039 18.7267 79.988 18.9345ZM89.9623 13.9459C89.9219 13.9459 89.8887 13.9784 89.8887 14.0185V17.7392C89.8887 18.6226 90.2576 19.0903 90.9952 19.0903H91.828C91.9499 19.0903 92.0484 19.1878 92.0484 19.308V21.2631C92.0484 21.3833 91.9499 21.4807 91.828 21.4807H90.6264C89.5203 21.4807 88.625 21.1689 88.0453 20.5453C87.4135 19.9218 87.0972 19.0384 87.0972 17.8952V14.0185C87.0972 13.9784 87.0644 13.9459 87.0236 13.9459H85.3941C85.243 13.9459 85.1366 13.7993 85.1852 13.6582L85.7704 11.9629C85.8006 11.8747 85.8847 11.8154 85.979 11.8154H87.0236C87.0644 11.8154 87.0972 11.7829 87.0972 11.7429V9.14147C87.0972 9.04263 87.1649 8.95621 87.2617 8.93104L89.7045 8.29631C89.7978 8.2721 89.8887 8.34146 89.8887 8.4366V11.7429C89.8887 11.7829 89.9219 11.8154 89.9623 11.8154H91.8875C92.0386 11.8154 92.145 11.962 92.0964 12.1031L91.5111 13.7984C91.4809 13.8866 91.3968 13.9459 91.3022 13.9459H89.9623ZM62.8079 11.5036C63.7561 11.5036 64.5462 11.7114 65.2307 12.1271C65.9157 12.5429 66.4947 13.1664 66.8635 13.9459C67.2849 14.7254 67.4429 15.6087 67.4429 16.596V17.054C67.4429 17.1742 67.3443 17.2716 67.2225 17.2716H60.9714C60.8821 17.2716 60.8135 17.3493 60.8286 17.436C60.8745 17.6961 60.9396 17.9246 61.0171 18.103C61.2279 18.5187 61.4913 18.8305 61.8069 18.9864C62.1232 19.1423 62.5445 19.2982 63.0713 19.2982C63.5452 19.2982 64.0195 19.1942 64.3354 19.0383C64.6402 18.9095 64.9088 18.6742 65.1417 18.3911C65.2218 18.2937 65.3669 18.2736 65.4655 18.3526L67.0675 19.6339C67.1594 19.7076 67.1765 19.8403 67.1013 19.9308C66.6524 20.4725 66.1125 20.8852 65.4415 21.1689C64.7042 21.4806 63.914 21.6365 63.0713 21.6365C62.0703 21.6365 61.175 21.4287 60.3852 21.013C59.595 20.5973 59.0157 19.9737 58.5944 19.1942C58.1727 18.4147 57.9622 17.5314 57.9622 16.5441C57.9622 15.5568 58.1727 14.6734 58.5944 13.894C59.0157 13.1145 59.595 12.5429 60.3323 12.0752C61.0696 11.7114 61.8598 11.5036 62.8079 11.5036ZM61.0335 15.4528C60.9406 15.4528 60.8709 15.369 60.8929 15.2802C60.9852 14.9064 61.1192 14.6002 61.2805 14.3616C61.5964 13.8939 62.1232 13.6341 62.8079 13.6341C63.4398 13.6341 63.9666 13.8939 64.2828 14.3616C64.4402 14.5946 64.5715 14.905 64.6635 15.2799C64.6855 15.3689 64.6155 15.4528 64.5229 15.4528H61.0335Z" fill="white"/>
</svg>
