<svg width="1440" height="274" viewBox="0 0 1440 274" fill="none" xmlns="http://www.w3.org/2000/svg">
<mask id="path-1-outside-1_7467_361" maskUnits="userSpaceOnUse" x="-48" y="0" width="1536" height="306" fill="black">
<rect fill="white" x="-48" width="1536" height="306"/>
<path fill-rule="evenodd" clip-rule="evenodd" d="M-38.1476 34.6099C-44.0492 44.9877 -47 57.0165 -47 70.6963V280.17H-2.73806V173.611H152.567V173.63V234.596C152.567 243.087 150.206 249.809 145.485 254.762C140.764 259.715 133.8 262.192 124.593 262.192H102.093V305H125.302C139.465 305 151.977 302.052 162.836 296.155C173.695 290.259 182.075 282.004 187.977 271.39C193.878 261.012 196.829 248.984 196.829 235.304V32.0367H152.567V131.511H-2.73806V71.4039C-2.73806 62.913 -0.37742 56.191 4.34385 51.2379C9.06512 46.2849 16.029 43.8084 25.2355 43.8084H47.7361V1H24.5274C10.3635 1 -2.14789 3.94824 -13.0068 9.8447C-23.8658 15.7412 -32.246 23.9962 -38.1476 34.6099ZM978.583 13.4143H978.683V280.308H934.775V130.298H860.896V280.155H860.631V280.304H816.369V280.155H816.131V130.302H786.367V130.045H785.807V87.7353H816.131C816.131 83.7038 816.301 79.9234 816.628 76.3698C816.975 71.8594 817.671 67.5441 818.716 63.4243C821.621 51.3333 826.813 42.4118 833.459 35.0643C845.733 20.9592 865.95 12.8817 882.195 12.8817C885.355 12.8817 904.57 12.8817 910.932 13.5474H911.105V13.5661L911.195 13.5762L911.281 13.5862L911.376 13.5976L911.436 13.605V57.0111H885.805C867.394 57.0111 861.257 69.6519 860.896 87.7353H934.775V13.4143H934.902V12.8817H978.583V13.4143ZM1201.06 184.2C1201.06 128.082 1155.07 82.1346 1098.55 82.1346C1040.28 82.1346 994.292 127.38 994.292 184.2C994.292 239.968 1040.63 285.565 1097.85 285.565C1154.72 285.565 1201.06 239.968 1201.06 184.2ZM1041.33 183.85C1041.33 151.581 1066.61 124.925 1096.8 124.925C1128.74 124.925 1154.02 150.88 1154.02 184.2C1154.02 216.469 1128.74 242.774 1097.5 242.774C1066.61 242.774 1041.33 216.469 1041.33 183.85ZM1190.85 86.4629L1254.98 280.529H1297.11L1338.73 161.172L1380.35 280.529H1422.89L1486.61 86.4629H1440.03L1401.88 220.347L1357.83 86.4629H1319.63L1276.11 218.765L1237.44 86.4629H1190.85ZM781.17 203.03H630.853C636.5 226.655 656.969 242.547 684.849 242.547C704.259 242.547 718.118 234.707 728.987 218.825H777.994C774.818 228.698 768.794 241.136 761.383 250.304C740.914 274.281 718.023 285.565 685.908 285.565C626.265 285.565 580.034 241.136 580.034 184.014C580.034 126.539 625.559 81.0525 683.084 81.0525C741.315 81.0525 782.935 125.481 782.935 186.13C782.935 193.182 782.582 196.331 781.17 203.03ZM629.441 165.022H737.786C732.739 138.403 712.729 122.989 683.79 122.989C655.91 122.989 635.809 137.32 629.441 165.022ZM438.241 248.774V280.696H578.409L578.327 236.734H498.266L576.068 116.761V86.4629H440.866V128.123H516.594L438.241 248.774ZM415.641 280.473V86.682H372.928V112.568C356.823 91.2295 337.567 82.1346 309.558 82.1346C252.141 82.1346 210.828 125.16 210.828 184.277C210.828 242.695 251.79 285.021 308.508 285.021C335.816 285.021 354.372 276.626 372.928 255.288V280.473H415.641ZM257.742 185.327C257.742 150.346 281.2 124.811 313.76 124.811C347.72 124.811 371.527 149.297 371.527 184.277C371.527 218.908 348.77 242.345 315.16 242.345C281.2 242.345 257.742 219.258 257.742 185.327Z"/>
</mask>
<path fill-rule="evenodd" clip-rule="evenodd" d="M-38.1476 34.6099C-44.0492 44.9877 -47 57.0165 -47 70.6963V280.17H-2.73806V173.611H152.567V173.63V234.596C152.567 243.087 150.206 249.809 145.485 254.762C140.764 259.715 133.8 262.192 124.593 262.192H102.093V305H125.302C139.465 305 151.977 302.052 162.836 296.155C173.695 290.259 182.075 282.004 187.977 271.39C193.878 261.012 196.829 248.984 196.829 235.304V32.0367H152.567V131.511H-2.73806V71.4039C-2.73806 62.913 -0.37742 56.191 4.34385 51.2379C9.06512 46.2849 16.029 43.8084 25.2355 43.8084H47.7361V1H24.5274C10.3635 1 -2.14789 3.94824 -13.0068 9.8447C-23.8658 15.7412 -32.246 23.9962 -38.1476 34.6099ZM978.583 13.4143H978.683V280.308H934.775V130.298H860.896V280.155H860.631V280.304H816.369V280.155H816.131V130.302H786.367V130.045H785.807V87.7353H816.131C816.131 83.7038 816.301 79.9234 816.628 76.3698C816.975 71.8594 817.671 67.5441 818.716 63.4243C821.621 51.3333 826.813 42.4118 833.459 35.0643C845.733 20.9592 865.95 12.8817 882.195 12.8817C885.355 12.8817 904.57 12.8817 910.932 13.5474H911.105V13.5661L911.195 13.5762L911.281 13.5862L911.376 13.5976L911.436 13.605V57.0111H885.805C867.394 57.0111 861.257 69.6519 860.896 87.7353H934.775V13.4143H934.902V12.8817H978.583V13.4143ZM1201.06 184.2C1201.06 128.082 1155.07 82.1346 1098.55 82.1346C1040.28 82.1346 994.292 127.38 994.292 184.2C994.292 239.968 1040.63 285.565 1097.85 285.565C1154.72 285.565 1201.06 239.968 1201.06 184.2ZM1041.33 183.85C1041.33 151.581 1066.61 124.925 1096.8 124.925C1128.74 124.925 1154.02 150.88 1154.02 184.2C1154.02 216.469 1128.74 242.774 1097.5 242.774C1066.61 242.774 1041.33 216.469 1041.33 183.85ZM1190.85 86.4629L1254.98 280.529H1297.11L1338.73 161.172L1380.35 280.529H1422.89L1486.61 86.4629H1440.03L1401.88 220.347L1357.83 86.4629H1319.63L1276.11 218.765L1237.44 86.4629H1190.85ZM781.17 203.03H630.853C636.5 226.655 656.969 242.547 684.849 242.547C704.259 242.547 718.118 234.707 728.987 218.825H777.994C774.818 228.698 768.794 241.136 761.383 250.304C740.914 274.281 718.023 285.565 685.908 285.565C626.265 285.565 580.034 241.136 580.034 184.014C580.034 126.539 625.559 81.0525 683.084 81.0525C741.315 81.0525 782.935 125.481 782.935 186.13C782.935 193.182 782.582 196.331 781.17 203.03ZM629.441 165.022H737.786C732.739 138.403 712.729 122.989 683.79 122.989C655.91 122.989 635.809 137.32 629.441 165.022ZM438.241 248.774V280.696H578.409L578.327 236.734H498.266L576.068 116.761V86.4629H440.866V128.123H516.594L438.241 248.774ZM415.641 280.473V86.682H372.928V112.568C356.823 91.2295 337.567 82.1346 309.558 82.1346C252.141 82.1346 210.828 125.16 210.828 184.277C210.828 242.695 251.79 285.021 308.508 285.021C335.816 285.021 354.372 276.626 372.928 255.288V280.473H415.641ZM257.742 185.327C257.742 150.346 281.2 124.811 313.76 124.811C347.72 124.811 371.527 149.297 371.527 184.277C371.527 218.908 348.77 242.345 315.16 242.345C281.2 242.345 257.742 219.258 257.742 185.327Z" fill="white" fill-opacity="0.6"/>
<path fill-rule="evenodd" clip-rule="evenodd" d="M-38.1476 34.6099C-44.0492 44.9877 -47 57.0165 -47 70.6963V280.17H-2.73806V173.611H152.567V173.63V234.596C152.567 243.087 150.206 249.809 145.485 254.762C140.764 259.715 133.8 262.192 124.593 262.192H102.093V305H125.302C139.465 305 151.977 302.052 162.836 296.155C173.695 290.259 182.075 282.004 187.977 271.39C193.878 261.012 196.829 248.984 196.829 235.304V32.0367H152.567V131.511H-2.73806V71.4039C-2.73806 62.913 -0.37742 56.191 4.34385 51.2379C9.06512 46.2849 16.029 43.8084 25.2355 43.8084H47.7361V1H24.5274C10.3635 1 -2.14789 3.94824 -13.0068 9.8447C-23.8658 15.7412 -32.246 23.9962 -38.1476 34.6099ZM978.583 13.4143H978.683V280.308H934.775V130.298H860.896V280.155H860.631V280.304H816.369V280.155H816.131V130.302H786.367V130.045H785.807V87.7353H816.131C816.131 83.7038 816.301 79.9234 816.628 76.3698C816.975 71.8594 817.671 67.5441 818.716 63.4243C821.621 51.3333 826.813 42.4118 833.459 35.0643C845.733 20.9592 865.95 12.8817 882.195 12.8817C885.355 12.8817 904.57 12.8817 910.932 13.5474H911.105V13.5661L911.195 13.5762L911.281 13.5862L911.376 13.5976L911.436 13.605V57.0111H885.805C867.394 57.0111 861.257 69.6519 860.896 87.7353H934.775V13.4143H934.902V12.8817H978.583V13.4143ZM1201.06 184.2C1201.06 128.082 1155.07 82.1346 1098.55 82.1346C1040.28 82.1346 994.292 127.38 994.292 184.2C994.292 239.968 1040.63 285.565 1097.85 285.565C1154.72 285.565 1201.06 239.968 1201.06 184.2ZM1041.33 183.85C1041.33 151.581 1066.61 124.925 1096.8 124.925C1128.74 124.925 1154.02 150.88 1154.02 184.2C1154.02 216.469 1128.74 242.774 1097.5 242.774C1066.61 242.774 1041.33 216.469 1041.33 183.85ZM1190.85 86.4629L1254.98 280.529H1297.11L1338.73 161.172L1380.35 280.529H1422.89L1486.61 86.4629H1440.03L1401.88 220.347L1357.83 86.4629H1319.63L1276.11 218.765L1237.44 86.4629H1190.85ZM781.17 203.03H630.853C636.5 226.655 656.969 242.547 684.849 242.547C704.259 242.547 718.118 234.707 728.987 218.825H777.994C774.818 228.698 768.794 241.136 761.383 250.304C740.914 274.281 718.023 285.565 685.908 285.565C626.265 285.565 580.034 241.136 580.034 184.014C580.034 126.539 625.559 81.0525 683.084 81.0525C741.315 81.0525 782.935 125.481 782.935 186.13C782.935 193.182 782.582 196.331 781.17 203.03ZM629.441 165.022H737.786C732.739 138.403 712.729 122.989 683.79 122.989C655.91 122.989 635.809 137.32 629.441 165.022ZM438.241 248.774V280.696H578.409L578.327 236.734H498.266L576.068 116.761V86.4629H440.866V128.123H516.594L438.241 248.774ZM415.641 280.473V86.682H372.928V112.568C356.823 91.2295 337.567 82.1346 309.558 82.1346C252.141 82.1346 210.828 125.16 210.828 184.277C210.828 242.695 251.79 285.021 308.508 285.021C335.816 285.021 354.372 276.626 372.928 255.288V280.473H415.641ZM257.742 185.327C257.742 150.346 281.2 124.811 313.76 124.811C347.72 124.811 371.527 149.297 371.527 184.277C371.527 218.908 348.77 242.345 315.16 242.345C281.2 242.345 257.742 219.258 257.742 185.327Z" stroke="white" stroke-opacity="0.8" stroke-width="2" mask="url(#path-1-outside-1_7467_361)"/>
</svg>
