<svg width="117" height="34" viewBox="0 0 117 34" fill="none" xmlns="http://www.w3.org/2000/svg">
<path d="M52.0377 10.5636C52.0377 12.8483 50.5925 14.1632 48.0748 14.1632H46.1085V16.9667H43.8815V7.15967H48.0803C50.5925 7.15967 52.0377 8.39305 52.0377 10.5636ZM49.915 10.6343C49.915 9.54757 49.2075 9.00425 47.9624 9.00425H46.1085V12.3267H47.9624C49.2075 12.3158 49.915 11.7535 49.915 10.6343Z" fill="white"/>
<path d="M55.555 7.15931V12.0492H60.039V7.15931H62.2741V16.9664H60.039V14.0134H55.555V16.9555H53.3198V7.14844L55.555 7.15931Z" fill="white"/>
<path d="M70.8698 15.0053H66.3336L65.5466 16.9667H63.2401L67.5403 7.15967H69.8468L74.0757 16.9667H71.6843L70.8698 15.0053ZM70.0744 13.0439L68.6154 9.4715L67.1427 13.0439H70.0744Z" fill="white"/>
<path d="M89.7363 15.0053H85.1999L84.3991 16.9667H82.0933L86.3903 7.15967H88.6939L92.9262 16.9667H90.5342L89.7363 15.0053ZM88.9407 13.0439L87.4878 9.4715L86.0148 13.0439H88.9407Z" fill="white"/>
<path d="M77.3399 7.15967V15.0379H81.5827V16.9721H75.105V7.16509L77.3399 7.15967Z" fill="white"/>
<path d="M45.911 23.5059L50.7186 29.8085V23.5059H52.8386V33.3021H50.8037L46.0097 27.0131V33.3021H43.8815V23.5059H45.911Z" fill="white"/>
<path d="M61.8118 23.5059V25.3424H56.4968V27.4695H61.2633V29.3059H56.4968V31.4792H61.9544V33.3021H54.2753V23.5059H61.8118Z" fill="white"/>
<path d="M70.9584 23.5059V25.3831H67.9416V33.3021H65.7065V25.3831H62.6898V23.5059H70.9584Z" fill="white"/>
<path d="M74.0021 23.5052L76.0806 30.8999L78.1462 23.5052H80.3397L82.4328 30.8999L84.4977 23.5052H86.7878L83.4969 33.3096H81.1904L79.2043 26.3197L77.1699 33.3014H74.8715L71.6051 23.4971L74.0021 23.5052Z" fill="white"/>
<path d="M97.5242 28.3927C97.5242 31.2044 95.2481 33.3614 92.242 33.3614C89.2365 33.3614 86.9627 31.218 86.9627 28.3927C86.9627 25.5673 89.2395 23.4565 92.242 23.4565C95.2452 23.4565 97.5242 25.5701 97.5242 28.3927ZM89.2395 28.3927C89.2343 29.1951 89.551 29.9667 90.1191 30.5382C90.6879 31.1097 91.4627 31.4343 92.2724 31.4408C92.8792 31.4466 93.474 31.2741 93.9811 30.9448C94.4882 30.6156 94.886 30.1446 95.1225 29.5915C95.3597 29.0383 95.4251 28.428 95.3121 27.8378C95.1983 27.2476 94.9098 26.7041 94.4845 26.2762C94.0585 25.8483 93.5142 25.5552 92.9201 25.4342C92.326 25.3131 91.7088 25.3695 91.1467 25.5962C90.5853 25.8228 90.1042 26.2096 89.7644 26.7074C89.4246 27.2053 89.2417 27.7918 89.2395 28.3927Z" fill="white"/>
<path d="M104.413 33.3021L102.844 30.5093H100.568V33.3021H98.3353V23.5059H102.633C105.222 23.5059 106.692 24.7393 106.692 26.9099C106.692 28.423 106.042 29.5151 104.838 30.0747L106.958 33.3021H104.413ZM100.573 28.6512H102.638C103.87 28.6512 104.575 28.0916 104.575 26.9723C104.575 25.853 103.87 25.3424 102.638 25.3424H100.573V28.6512Z" fill="white"/>
<path d="M114.275 33.3021L111.432 29.3113L110.006 30.8788V33.3021H107.781V23.5059H110.016V27.9612L114.13 23.5059H116.716L112.992 27.5971L116.963 33.3021H114.275Z" fill="white"/>
<path d="M27.3716 16.9883H7.57068V23.5273H27.3716V16.9883Z" fill="white"/>
<path d="M33.9749 7.18115H27.3737V16.9882H33.9749V7.18115Z" fill="white"/>
<path d="M7.56999 23.5269H0.96875V25.1623V26.7977V33.3339H7.56999V26.7977V23.5269Z" fill="white"/>
<path d="M27.3737 0.64209H7.56999H6.62108H0.96875V13.72V15.8064V16.9881H7.56999V15.8064V13.72V7.18103H27.3737V0.64209Z" fill="white"/>
<path d="M27.3716 16.9883H7.57068V23.5273H27.3716V16.9883Z" fill="white"/>
</svg>
