<svg width="143" height="22" viewBox="0 0 143 22" fill="none" xmlns="http://www.w3.org/2000/svg">
<mask id="mask0_7246_38" style="mask-type:luminance" maskUnits="userSpaceOnUse" x="0" y="0" width="143" height="22">
<path d="M142.741 0.0571289H0.485046V21.3785H142.741V0.0571289Z" fill="white"/>
</mask>
<g mask="url(#mask0_7246_38)">
<path d="M28.0978 11.5275H34.6276L37.9245 4.43108L35.1397 0.00388367H7.38829L5.05167 5.00994H31.128L28.0978 11.5275ZM2.8004 16.3298L0.431763 21.4324H14.8249L17.343 18.8811L14.8249 16.3298H2.8004ZM59.7757 8.69749H46.3427L48.4766 4.13093H61.8989L59.7757 8.69749ZM40.4211 21.4324L44.4542 12.7817L57.8658 12.8031L53.8541 21.4324H60.3838L68.418 4.15237L65.8039 -0.00683594H46.6308L41.9362 4.13093L36.2707 16.3298H33.8274L24.0434 8.11863H9.42617L7.04687 13.2212H22.1869L31.8108 21.4324H40.4211ZM109.261 -0.00683594H102.752L96.7135 8.69749H87.1216L91.1761 -0.00683594H84.6463L74.6703 21.4324H81.2001L85.2331 12.7817L98.1966 12.8138L99.4876 13.8107L95.9347 21.4324H102.464L106.327 13.1354L102.155 9.91952L109.261 -0.00683594ZM74.2329 -0.00683594L64.2569 21.4324H70.7973L80.7626 -0.00683594H74.2329ZM136.276 -0.00683594L128.242 17.2839L114.788 17.2946L122.833 -0.00683594H116.303L108.258 17.2839L110.872 21.4324H130.045L133.726 19.5243L142.806 -0.00683594H136.276Z" fill="white"/>
<path d="M28.0978 11.5275H34.6276L37.9245 4.43108L35.1397 0.00388367H7.38829L5.05167 5.00994H31.128L28.0978 11.5275ZM2.8004 16.3298L0.431763 21.4324H14.8249L17.343 18.8811L14.8249 16.3298H2.8004ZM59.7757 8.69749H46.3427L48.4766 4.13093H61.8989L59.7757 8.69749ZM40.4211 21.4324L44.4542 12.7817L57.8658 12.8031L53.8541 21.4324H60.3838L68.418 4.15237L65.8039 -0.00683594H46.6308L41.9362 4.13093L36.2707 16.3298H33.8274L24.0434 8.11863H9.42617L7.04687 13.2212H22.1869L31.8108 21.4324H40.4211ZM109.261 -0.00683594H102.752L96.7135 8.69749H87.1216L91.1761 -0.00683594H84.6463L74.6703 21.4324H81.2001L85.2331 12.7817L98.1966 12.8138L99.4876 13.8107L95.9347 21.4324H102.464L106.327 13.1354L102.155 9.91952L109.261 -0.00683594ZM74.2329 -0.00683594L64.2569 21.4324H70.7973L80.7626 -0.00683594H74.2329ZM136.276 -0.00683594L128.242 17.2839L114.788 17.2946L122.833 -0.00683594H116.303L108.258 17.2839L110.872 21.4324H130.045L133.726 19.5243L142.806 -0.00683594H136.276Z" stroke="url(#paint0_linear_7246_38)" stroke-width="1.06607"/>
</g>
<defs>
<linearGradient id="paint0_linear_7246_38" x1="-4.10221" y1="38.5119" x2="52.7268" y2="-74.4722" gradientUnits="userSpaceOnUse">
<stop stop-color="white"/>
<stop offset="0.97" stop-color="white" stop-opacity="0"/>
</linearGradient>
</defs>
</svg>
